M48
; DRILL file {KiCad (6.0.10)} date Wed Jan  4 16:15:59 2023
; FORMAT={-:-/ absolute / metric / decimal}
; #@! TF.CreationDate,2023-01-04T16:15:59-06:00
; #@! TF.GenerationSoftware,Kicad,Pcbnew,(6.0.10)
; #@! TF.FileFunction,Plated,1,2,PTH
FMAT,2
METRIC
; #@! TA.AperFunction,Plated,PTH,ViaDrill
T1C0.400
; #@! TA.AperFunction,Plated,PTH,ComponentDrill
T2C0.759
; #@! TA.AperFunction,Plated,PTH,ComponentDrill
T3C0.800
; #@! TA.AperFunction,Plated,PTH,ComponentDrill
T4C0.920
; #@! TA.AperFunction,Plated,PTH,ComponentDrill
T5C1.000
; #@! TA.AperFunction,Plated,PTH,ComponentDrill
T6C1.100
; #@! TA.AperFunction,Plated,PTH,ComponentDrill
T7C2.330
%
G90
G05
T1
X132.08Y-75.565
X138.43Y-60.325
X138.43Y-140.97
X146.05Y-69.85
X154.94Y-99.06
X156.21Y-101.6
X158.75Y-106.68
X160.02Y-104.14
T2
X150.933Y-81.28
X150.933Y-83.82
X150.933Y-86.36
X150.933Y-88.9
X150.933Y-91.44
X150.933Y-93.98
X150.933Y-96.52
X150.933Y-99.06
X150.933Y-101.6
X150.933Y-104.14
X150.933Y-106.68
X150.933Y-109.22
X150.933Y-111.76
X150.933Y-114.3
X150.933Y-116.84
X150.933Y-119.38
X150.933Y-121.92
X150.933Y-124.46
X150.933Y-127.0
X150.933Y-129.54
X166.491Y-81.28
X166.491Y-83.82
X166.491Y-86.36
X166.491Y-88.9
X166.491Y-91.44
X166.491Y-93.98
X166.491Y-96.52
X166.491Y-99.06
X166.491Y-101.6
X166.491Y-104.14
X166.491Y-106.68
X166.491Y-109.22
X166.491Y-111.76
X166.491Y-114.3
X166.491Y-116.84
X166.491Y-119.38
X166.491Y-121.92
X166.491Y-124.46
X166.491Y-127.0
X166.491Y-129.54
T3
X136.0Y-64.77
X136.0Y-135.89
X140.88Y-64.77
X140.88Y-135.89
X173.99Y-81.265
X173.99Y-83.805
X173.99Y-86.345
X173.99Y-88.885
X173.99Y-91.425
X173.99Y-93.965
X173.99Y-96.505
X173.99Y-99.045
X173.99Y-101.585
T4
X179.09Y-71.888
X179.09Y-73.888
X181.59Y-71.888
X181.59Y-73.888
T5
X132.08Y-81.28
X132.08Y-83.82
X132.08Y-86.36
X132.08Y-88.9
X132.08Y-91.44
X132.08Y-93.98
X132.08Y-96.52
X132.08Y-99.06
X132.08Y-101.6
X132.08Y-104.14
X132.08Y-106.68
X132.08Y-109.22
X132.08Y-111.76
X132.08Y-114.3
X132.08Y-116.84
X132.08Y-119.38
X132.08Y-121.92
X132.08Y-124.46
X132.08Y-127.0
X132.08Y-129.54
X135.89Y-81.28
X135.89Y-83.82
X135.89Y-86.36
X135.89Y-88.9
X135.89Y-91.44
X135.89Y-93.98
X135.89Y-96.52
X135.89Y-99.06
X135.89Y-101.6
X135.89Y-104.14
X135.89Y-106.68
X135.89Y-109.22
X135.89Y-111.76
X135.89Y-114.3
X135.89Y-116.84
X135.89Y-119.38
X135.89Y-121.92
X135.89Y-124.46
X135.89Y-127.0
X135.89Y-129.54
X139.7Y-81.28
X139.7Y-83.82
X139.7Y-86.36
X139.7Y-88.9
X139.7Y-91.44
X139.7Y-93.98
X139.7Y-96.52
X139.7Y-99.06
X139.7Y-101.6
X139.7Y-104.14
X139.7Y-106.68
X139.7Y-109.22
X139.7Y-111.76
X139.7Y-114.3
X139.7Y-116.84
X139.7Y-119.38
X139.7Y-121.92
X139.7Y-124.46
X139.7Y-127.0
X139.7Y-129.54
X153.67Y-146.567
X153.67Y-149.107
X156.21Y-146.567
X156.21Y-149.107
X158.75Y-146.567
X158.75Y-149.107
X161.29Y-146.567
X161.29Y-149.107
X163.83Y-146.567
X163.83Y-149.107
X177.8Y-81.285
X177.8Y-83.825
X177.8Y-86.365
X177.8Y-88.905
X177.8Y-91.445
X177.8Y-93.985
X177.8Y-96.525
X177.8Y-99.065
X177.8Y-101.605
X177.8Y-104.145
X177.8Y-106.685
X177.8Y-109.225
X177.8Y-111.765
X177.8Y-114.305
X177.8Y-116.845
X177.8Y-119.385
X177.8Y-121.925
X177.8Y-124.465
X177.8Y-127.005
X177.8Y-129.545
X181.61Y-81.285
X181.61Y-83.825
X181.61Y-86.365
X181.61Y-88.905
X181.61Y-91.445
X181.61Y-93.985
X181.61Y-96.525
X181.61Y-99.065
X181.61Y-101.605
X181.61Y-104.145
X181.61Y-106.685
X181.61Y-109.225
X181.61Y-111.765
X181.61Y-114.305
X181.61Y-116.845
X181.61Y-119.385
X181.61Y-121.925
X181.61Y-124.465
X181.61Y-127.005
X181.61Y-129.545
X185.42Y-81.285
X185.42Y-83.825
X185.42Y-86.365
X185.42Y-88.905
X185.42Y-91.445
X185.42Y-93.985
X185.42Y-96.525
X185.42Y-99.065
X185.42Y-101.605
X185.42Y-104.145
X185.42Y-106.685
X185.42Y-109.225
X185.42Y-111.765
X185.42Y-114.305
X185.42Y-116.845
X185.42Y-119.385
X185.42Y-121.925
X185.42Y-124.465
X185.42Y-127.005
X185.42Y-129.545
T6
X176.455Y-143.8
X176.455Y-148.3
X182.955Y-143.8
X182.955Y-148.3
T7
X174.32Y-69.177
X186.36Y-69.177
T0
M30
