G04 #@! TF.GenerationSoftware,KiCad,Pcbnew,(6.0.10)*
G04 #@! TF.CreationDate,2023-01-04T16:14:13-06:00*
G04 #@! TF.ProjectId,AT89S52_dev_board,41543839-5335-4325-9f64-65765f626f61,rev?*
G04 #@! TF.SameCoordinates,Original*
G04 #@! TF.FileFunction,Soldermask,Top*
G04 #@! TF.FilePolarity,Negative*
%FSLAX46Y46*%
G04 Gerber Fmt 4.6, Leading zero omitted, Abs format (unit mm)*
G04 Created by KiCad (PCBNEW (6.0.10)) date 2023-01-04 16:14:13*
%MOMM*%
%LPD*%
G01*
G04 APERTURE LIST*
G04 Aperture macros list*
%AMRoundRect*
0 Rectangle with rounded corners*
0 $1 Rounding radius*
0 $2 $3 $4 $5 $6 $7 $8 $9 X,Y pos of 4 corners*
0 Add a 4 corners polygon primitive as box body*
4,1,4,$2,$3,$4,$5,$6,$7,$8,$9,$2,$3,0*
0 Add four circle primitives for the rounded corners*
1,1,$1+$1,$2,$3*
1,1,$1+$1,$4,$5*
1,1,$1+$1,$6,$7*
1,1,$1+$1,$8,$9*
0 Add four rect primitives between the rounded corners*
20,1,$1+$1,$2,$3,$4,$5,0*
20,1,$1+$1,$4,$5,$6,$7,0*
20,1,$1+$1,$6,$7,$8,$9,0*
20,1,$1+$1,$8,$9,$2,$3,0*%
G04 Aperture macros list end*
%ADD10RoundRect,0.250000X-0.450000X0.262500X-0.450000X-0.262500X0.450000X-0.262500X0.450000X0.262500X0*%
%ADD11C,2.000000*%
%ADD12RoundRect,0.250000X0.250000X0.475000X-0.250000X0.475000X-0.250000X-0.475000X0.250000X-0.475000X0*%
%ADD13RoundRect,0.250000X0.450000X-0.262500X0.450000X0.262500X-0.450000X0.262500X-0.450000X-0.262500X0*%
%ADD14R,1.700000X1.700000*%
%ADD15O,1.700000X1.700000*%
%ADD16RoundRect,0.250000X-0.250000X-0.475000X0.250000X-0.475000X0.250000X0.475000X-0.250000X0.475000X0*%
%ADD17RoundRect,0.150000X-0.150000X0.850000X-0.150000X-0.850000X0.150000X-0.850000X0.150000X0.850000X0*%
%ADD18RoundRect,0.250000X-0.475000X0.250000X-0.475000X-0.250000X0.475000X-0.250000X0.475000X0.250000X0*%
%ADD19C,1.500000*%
%ADD20R,1.600000X1.600000*%
%ADD21O,1.600000X1.600000*%
%ADD22RoundRect,0.250000X-0.600000X0.600000X-0.600000X-0.600000X0.600000X-0.600000X0.600000X0.600000X0*%
%ADD23C,1.700000*%
%ADD24C,3.500000*%
%ADD25R,1.159000X1.159000*%
%ADD26C,1.159000*%
G04 APERTURE END LIST*
D10*
X182880000Y-137517500D03*
X182880000Y-139342500D03*
D11*
X182955000Y-143800000D03*
X176455000Y-143800000D03*
X182955000Y-148300000D03*
X176455000Y-148300000D03*
D12*
X136840000Y-140970000D03*
X134940000Y-140970000D03*
X136525000Y-60325000D03*
X134625000Y-60325000D03*
D13*
X173990000Y-106322500D03*
X173990000Y-104497500D03*
D14*
X135890000Y-81280000D03*
D15*
X135890000Y-83820000D03*
X135890000Y-86360000D03*
X135890000Y-88900000D03*
X135890000Y-91440000D03*
X135890000Y-93980000D03*
X135890000Y-96520000D03*
X135890000Y-99060000D03*
X135890000Y-101600000D03*
X135890000Y-104140000D03*
X135890000Y-106680000D03*
X135890000Y-109220000D03*
X135890000Y-111760000D03*
X135890000Y-114300000D03*
X135890000Y-116840000D03*
X135890000Y-119380000D03*
X135890000Y-121920000D03*
X135890000Y-124460000D03*
X135890000Y-127000000D03*
X135890000Y-129540000D03*
D16*
X136845000Y-78105000D03*
X138745000Y-78105000D03*
D17*
X144145000Y-69890000D03*
X142875000Y-69890000D03*
X141605000Y-69890000D03*
X140335000Y-69890000D03*
X139065000Y-69890000D03*
X137795000Y-69890000D03*
X136525000Y-69890000D03*
X135255000Y-69890000D03*
X135255000Y-74890000D03*
X136525000Y-74890000D03*
X137795000Y-74890000D03*
X139065000Y-74890000D03*
X140335000Y-74890000D03*
X141605000Y-74890000D03*
X142875000Y-74890000D03*
X144145000Y-74890000D03*
D14*
X181610000Y-81285000D03*
D15*
X181610000Y-83825000D03*
X181610000Y-86365000D03*
X181610000Y-88905000D03*
X181610000Y-91445000D03*
X181610000Y-93985000D03*
X181610000Y-96525000D03*
X181610000Y-99065000D03*
X181610000Y-101605000D03*
X181610000Y-104145000D03*
X181610000Y-106685000D03*
X181610000Y-109225000D03*
X181610000Y-111765000D03*
X181610000Y-114305000D03*
X181610000Y-116845000D03*
X181610000Y-119385000D03*
X181610000Y-121925000D03*
X181610000Y-124465000D03*
X181610000Y-127005000D03*
X181610000Y-129545000D03*
D12*
X141920000Y-140970000D03*
X140020000Y-140970000D03*
D16*
X182250000Y-77470000D03*
X184150000Y-77470000D03*
D18*
X143510000Y-79060000D03*
X143510000Y-80960000D03*
X132080000Y-71440000D03*
X132080000Y-73340000D03*
D19*
X140880000Y-64770000D03*
X136000000Y-64770000D03*
D20*
X173990000Y-81265000D03*
D21*
X173990000Y-83805000D03*
X173990000Y-86345000D03*
X173990000Y-88885000D03*
X173990000Y-91425000D03*
X173990000Y-93965000D03*
X173990000Y-96505000D03*
X173990000Y-99045000D03*
X173990000Y-101585000D03*
D18*
X143510000Y-126050000D03*
X143510000Y-127950000D03*
D14*
X139700000Y-81280000D03*
D15*
X139700000Y-83820000D03*
X139700000Y-86360000D03*
X139700000Y-88900000D03*
X139700000Y-91440000D03*
X139700000Y-93980000D03*
X139700000Y-96520000D03*
X139700000Y-99060000D03*
X139700000Y-101600000D03*
X139700000Y-104140000D03*
X139700000Y-106680000D03*
X139700000Y-109220000D03*
X139700000Y-111760000D03*
X139700000Y-114300000D03*
X139700000Y-116840000D03*
X139700000Y-119380000D03*
X139700000Y-121920000D03*
X139700000Y-124460000D03*
X139700000Y-127000000D03*
X139700000Y-129540000D03*
D22*
X163830000Y-146567500D03*
D23*
X163830000Y-149107500D03*
X161290000Y-146567500D03*
X161290000Y-149107500D03*
X158750000Y-146567500D03*
X158750000Y-149107500D03*
X156210000Y-146567500D03*
X156210000Y-149107500D03*
X153670000Y-146567500D03*
X153670000Y-149107500D03*
D14*
X132080000Y-81280000D03*
D15*
X132080000Y-83820000D03*
X132080000Y-86360000D03*
X132080000Y-88900000D03*
X132080000Y-91440000D03*
X132080000Y-93980000D03*
X132080000Y-96520000D03*
X132080000Y-99060000D03*
X132080000Y-101600000D03*
X132080000Y-104140000D03*
X132080000Y-106680000D03*
X132080000Y-109220000D03*
X132080000Y-111760000D03*
X132080000Y-114300000D03*
X132080000Y-116840000D03*
X132080000Y-119380000D03*
X132080000Y-121920000D03*
X132080000Y-124460000D03*
X132080000Y-127000000D03*
X132080000Y-129540000D03*
D14*
X185420000Y-81285000D03*
D15*
X185420000Y-83825000D03*
X185420000Y-86365000D03*
X185420000Y-88905000D03*
X185420000Y-91445000D03*
X185420000Y-93985000D03*
X185420000Y-96525000D03*
X185420000Y-99065000D03*
X185420000Y-101605000D03*
X185420000Y-104145000D03*
X185420000Y-106685000D03*
X185420000Y-109225000D03*
X185420000Y-111765000D03*
X185420000Y-114305000D03*
X185420000Y-116845000D03*
X185420000Y-119385000D03*
X185420000Y-121925000D03*
X185420000Y-124465000D03*
X185420000Y-127005000D03*
X185420000Y-129545000D03*
D16*
X180980000Y-134620000D03*
X182880000Y-134620000D03*
D14*
X179090000Y-73887500D03*
D23*
X181590000Y-73887500D03*
X181590000Y-71887500D03*
X179090000Y-71887500D03*
D24*
X186360000Y-69177500D03*
X174320000Y-69177500D03*
D14*
X177800000Y-81285000D03*
D15*
X177800000Y-83825000D03*
X177800000Y-86365000D03*
X177800000Y-88905000D03*
X177800000Y-91445000D03*
X177800000Y-93985000D03*
X177800000Y-96525000D03*
X177800000Y-99065000D03*
X177800000Y-101605000D03*
X177800000Y-104145000D03*
X177800000Y-106685000D03*
X177800000Y-109225000D03*
X177800000Y-111765000D03*
X177800000Y-114305000D03*
X177800000Y-116845000D03*
X177800000Y-119385000D03*
X177800000Y-121925000D03*
X177800000Y-124465000D03*
X177800000Y-127005000D03*
X177800000Y-129545000D03*
D19*
X140880000Y-135890000D03*
X136000000Y-135890000D03*
D25*
X150933000Y-81280000D03*
D26*
X150933000Y-83820000D03*
X150933000Y-86360000D03*
X150933000Y-88900000D03*
X150933000Y-91440000D03*
X150933000Y-93980000D03*
X150933000Y-96520000D03*
X150933000Y-99060000D03*
X150933000Y-101600000D03*
X150933000Y-104140000D03*
X150933000Y-106680000D03*
X150933000Y-109220000D03*
X150933000Y-111760000D03*
X150933000Y-114300000D03*
X150933000Y-116840000D03*
X150933000Y-119380000D03*
X150933000Y-121920000D03*
X150933000Y-124460000D03*
X150933000Y-127000000D03*
X150933000Y-129540000D03*
X166491000Y-129540000D03*
X166491000Y-127000000D03*
X166491000Y-124460000D03*
X166491000Y-121920000D03*
X166491000Y-119380000D03*
X166491000Y-116840000D03*
X166491000Y-114300000D03*
X166491000Y-111760000D03*
X166491000Y-109220000D03*
X166491000Y-106680000D03*
X166491000Y-104140000D03*
X166491000Y-101600000D03*
X166491000Y-99060000D03*
X166491000Y-96520000D03*
X166491000Y-93980000D03*
X166491000Y-91440000D03*
X166491000Y-88900000D03*
X166491000Y-86360000D03*
X166491000Y-83820000D03*
X166491000Y-81280000D03*
D12*
X142240000Y-60325000D03*
X140340000Y-60325000D03*
M02*
