G04 #@! TF.GenerationSoftware,KiCad,Pcbnew,(6.0.10)*
G04 #@! TF.CreationDate,2023-01-04T16:14:13-06:00*
G04 #@! TF.ProjectId,AT89S52_dev_board,41543839-5335-4325-9f64-65765f626f61,rev?*
G04 #@! TF.SameCoordinates,Original*
G04 #@! TF.FileFunction,Legend,Top*
G04 #@! TF.FilePolarity,Positive*
%FSLAX46Y46*%
G04 Gerber Fmt 4.6, Leading zero omitted, Abs format (unit mm)*
G04 Created by KiCad (PCBNEW (6.0.10)) date 2023-01-04 16:14:13*
%MOMM*%
%LPD*%
G01*
G04 APERTURE LIST*
G04 Aperture macros list*
%AMRoundRect*
0 Rectangle with rounded corners*
0 $1 Rounding radius*
0 $2 $3 $4 $5 $6 $7 $8 $9 X,Y pos of 4 corners*
0 Add a 4 corners polygon primitive as box body*
4,1,4,$2,$3,$4,$5,$6,$7,$8,$9,$2,$3,0*
0 Add four circle primitives for the rounded corners*
1,1,$1+$1,$2,$3*
1,1,$1+$1,$4,$5*
1,1,$1+$1,$6,$7*
1,1,$1+$1,$8,$9*
0 Add four rect primitives between the rounded corners*
20,1,$1+$1,$2,$3,$4,$5,0*
20,1,$1+$1,$4,$5,$6,$7,0*
20,1,$1+$1,$6,$7,$8,$9,0*
20,1,$1+$1,$8,$9,$2,$3,0*%
G04 Aperture macros list end*
%ADD10C,0.600000*%
%ADD11C,0.150000*%
%ADD12C,0.254000*%
%ADD13C,0.120000*%
%ADD14C,0.200000*%
%ADD15RoundRect,0.250000X-0.450000X0.262500X-0.450000X-0.262500X0.450000X-0.262500X0.450000X0.262500X0*%
%ADD16C,2.000000*%
%ADD17RoundRect,0.250000X0.250000X0.475000X-0.250000X0.475000X-0.250000X-0.475000X0.250000X-0.475000X0*%
%ADD18RoundRect,0.250000X0.450000X-0.262500X0.450000X0.262500X-0.450000X0.262500X-0.450000X-0.262500X0*%
%ADD19R,1.700000X1.700000*%
%ADD20O,1.700000X1.700000*%
%ADD21RoundRect,0.250000X-0.250000X-0.475000X0.250000X-0.475000X0.250000X0.475000X-0.250000X0.475000X0*%
%ADD22RoundRect,0.150000X-0.150000X0.850000X-0.150000X-0.850000X0.150000X-0.850000X0.150000X0.850000X0*%
%ADD23RoundRect,0.250000X-0.475000X0.250000X-0.475000X-0.250000X0.475000X-0.250000X0.475000X0.250000X0*%
%ADD24C,1.500000*%
%ADD25R,1.600000X1.600000*%
%ADD26O,1.600000X1.600000*%
%ADD27RoundRect,0.250000X-0.600000X0.600000X-0.600000X-0.600000X0.600000X-0.600000X0.600000X0.600000X0*%
%ADD28C,1.700000*%
%ADD29C,3.500000*%
%ADD30R,1.159000X1.159000*%
%ADD31C,1.159000*%
G04 APERTURE END LIST*
D10*
X146012000Y-59484000D02*
X171412000Y-59484000D01*
X171412000Y-59484000D02*
X171412000Y-139494000D01*
X171412000Y-139494000D02*
X146012000Y-139494000D01*
X146012000Y-139494000D02*
X146012000Y-59484000D01*
D11*
X184982380Y-138596666D02*
X184506190Y-138930000D01*
X184982380Y-139168095D02*
X183982380Y-139168095D01*
X183982380Y-138787142D01*
X184030000Y-138691904D01*
X184077619Y-138644285D01*
X184172857Y-138596666D01*
X184315714Y-138596666D01*
X184410952Y-138644285D01*
X184458571Y-138691904D01*
X184506190Y-138787142D01*
X184506190Y-139168095D01*
X184982380Y-137644285D02*
X184982380Y-138215714D01*
X184982380Y-137930000D02*
X183982380Y-137930000D01*
X184125238Y-138025238D01*
X184220476Y-138120476D01*
X184268095Y-138215714D01*
X178371666Y-142204761D02*
X178514523Y-142252380D01*
X178752619Y-142252380D01*
X178847857Y-142204761D01*
X178895476Y-142157142D01*
X178943095Y-142061904D01*
X178943095Y-141966666D01*
X178895476Y-141871428D01*
X178847857Y-141823809D01*
X178752619Y-141776190D01*
X178562142Y-141728571D01*
X178466904Y-141680952D01*
X178419285Y-141633333D01*
X178371666Y-141538095D01*
X178371666Y-141442857D01*
X178419285Y-141347619D01*
X178466904Y-141300000D01*
X178562142Y-141252380D01*
X178800238Y-141252380D01*
X178943095Y-141300000D01*
X179276428Y-141252380D02*
X179514523Y-142252380D01*
X179705000Y-141538095D01*
X179895476Y-142252380D01*
X180133571Y-141252380D01*
X181038333Y-142252380D02*
X180466904Y-142252380D01*
X180752619Y-142252380D02*
X180752619Y-141252380D01*
X180657380Y-141395238D01*
X180562142Y-141490476D01*
X180466904Y-141538095D01*
X135723333Y-143007142D02*
X135675714Y-143054761D01*
X135532857Y-143102380D01*
X135437619Y-143102380D01*
X135294761Y-143054761D01*
X135199523Y-142959523D01*
X135151904Y-142864285D01*
X135104285Y-142673809D01*
X135104285Y-142530952D01*
X135151904Y-142340476D01*
X135199523Y-142245238D01*
X135294761Y-142150000D01*
X135437619Y-142102380D01*
X135532857Y-142102380D01*
X135675714Y-142150000D01*
X135723333Y-142197619D01*
X136580476Y-142435714D02*
X136580476Y-143102380D01*
X136342380Y-142054761D02*
X136104285Y-142769047D01*
X136723333Y-142769047D01*
X135408333Y-62362142D02*
X135360714Y-62409761D01*
X135217857Y-62457380D01*
X135122619Y-62457380D01*
X134979761Y-62409761D01*
X134884523Y-62314523D01*
X134836904Y-62219285D01*
X134789285Y-62028809D01*
X134789285Y-61885952D01*
X134836904Y-61695476D01*
X134884523Y-61600238D01*
X134979761Y-61505000D01*
X135122619Y-61457380D01*
X135217857Y-61457380D01*
X135360714Y-61505000D01*
X135408333Y-61552619D01*
X135979761Y-61885952D02*
X135884523Y-61838333D01*
X135836904Y-61790714D01*
X135789285Y-61695476D01*
X135789285Y-61647857D01*
X135836904Y-61552619D01*
X135884523Y-61505000D01*
X135979761Y-61457380D01*
X136170238Y-61457380D01*
X136265476Y-61505000D01*
X136313095Y-61552619D01*
X136360714Y-61647857D01*
X136360714Y-61695476D01*
X136313095Y-61790714D01*
X136265476Y-61838333D01*
X136170238Y-61885952D01*
X135979761Y-61885952D01*
X135884523Y-61933571D01*
X135836904Y-61981190D01*
X135789285Y-62076428D01*
X135789285Y-62266904D01*
X135836904Y-62362142D01*
X135884523Y-62409761D01*
X135979761Y-62457380D01*
X136170238Y-62457380D01*
X136265476Y-62409761D01*
X136313095Y-62362142D01*
X136360714Y-62266904D01*
X136360714Y-62076428D01*
X136313095Y-61981190D01*
X136265476Y-61933571D01*
X136170238Y-61885952D01*
X172792380Y-105576666D02*
X172316190Y-105910000D01*
X172792380Y-106148095D02*
X171792380Y-106148095D01*
X171792380Y-105767142D01*
X171840000Y-105671904D01*
X171887619Y-105624285D01*
X171982857Y-105576666D01*
X172125714Y-105576666D01*
X172220952Y-105624285D01*
X172268571Y-105671904D01*
X172316190Y-105767142D01*
X172316190Y-106148095D01*
X171887619Y-105195714D02*
X171840000Y-105148095D01*
X171792380Y-105052857D01*
X171792380Y-104814761D01*
X171840000Y-104719523D01*
X171887619Y-104671904D01*
X171982857Y-104624285D01*
X172078095Y-104624285D01*
X172220952Y-104671904D01*
X172792380Y-105243333D01*
X172792380Y-104624285D01*
X135556666Y-78402380D02*
X135556666Y-79116666D01*
X135509047Y-79259523D01*
X135413809Y-79354761D01*
X135270952Y-79402380D01*
X135175714Y-79402380D01*
X136556666Y-79402380D02*
X135985238Y-79402380D01*
X136270952Y-79402380D02*
X136270952Y-78402380D01*
X136175714Y-78545238D01*
X136080476Y-78640476D01*
X135985238Y-78688095D01*
X137152142Y-76782142D02*
X137104523Y-76829761D01*
X136961666Y-76877380D01*
X136866428Y-76877380D01*
X136723571Y-76829761D01*
X136628333Y-76734523D01*
X136580714Y-76639285D01*
X136533095Y-76448809D01*
X136533095Y-76305952D01*
X136580714Y-76115476D01*
X136628333Y-76020238D01*
X136723571Y-75925000D01*
X136866428Y-75877380D01*
X136961666Y-75877380D01*
X137104523Y-75925000D01*
X137152142Y-75972619D01*
X138104523Y-76877380D02*
X137533095Y-76877380D01*
X137818809Y-76877380D02*
X137818809Y-75877380D01*
X137723571Y-76020238D01*
X137628333Y-76115476D01*
X137533095Y-76163095D01*
X138723571Y-75877380D02*
X138818809Y-75877380D01*
X138914047Y-75925000D01*
X138961666Y-75972619D01*
X139009285Y-76067857D01*
X139056904Y-76258333D01*
X139056904Y-76496428D01*
X139009285Y-76686904D01*
X138961666Y-76782142D01*
X138914047Y-76829761D01*
X138818809Y-76877380D01*
X138723571Y-76877380D01*
X138628333Y-76829761D01*
X138580714Y-76782142D01*
X138533095Y-76686904D01*
X138485476Y-76496428D01*
X138485476Y-76258333D01*
X138533095Y-76067857D01*
X138580714Y-75972619D01*
X138628333Y-75925000D01*
X138723571Y-75877380D01*
X145052380Y-73151904D02*
X145861904Y-73151904D01*
X145957142Y-73104285D01*
X146004761Y-73056666D01*
X146052380Y-72961428D01*
X146052380Y-72770952D01*
X146004761Y-72675714D01*
X145957142Y-72628095D01*
X145861904Y-72580476D01*
X145052380Y-72580476D01*
X146052380Y-71580476D02*
X146052380Y-72151904D01*
X146052380Y-71866190D02*
X145052380Y-71866190D01*
X145195238Y-71961428D01*
X145290476Y-72056666D01*
X145338095Y-72151904D01*
X181276666Y-78407380D02*
X181276666Y-79121666D01*
X181229047Y-79264523D01*
X181133809Y-79359761D01*
X180990952Y-79407380D01*
X180895714Y-79407380D01*
X181705238Y-78502619D02*
X181752857Y-78455000D01*
X181848095Y-78407380D01*
X182086190Y-78407380D01*
X182181428Y-78455000D01*
X182229047Y-78502619D01*
X182276666Y-78597857D01*
X182276666Y-78693095D01*
X182229047Y-78835952D01*
X181657619Y-79407380D01*
X182276666Y-79407380D01*
X140803333Y-143007142D02*
X140755714Y-143054761D01*
X140612857Y-143102380D01*
X140517619Y-143102380D01*
X140374761Y-143054761D01*
X140279523Y-142959523D01*
X140231904Y-142864285D01*
X140184285Y-142673809D01*
X140184285Y-142530952D01*
X140231904Y-142340476D01*
X140279523Y-142245238D01*
X140374761Y-142150000D01*
X140517619Y-142102380D01*
X140612857Y-142102380D01*
X140755714Y-142150000D01*
X140803333Y-142197619D01*
X141184285Y-142197619D02*
X141231904Y-142150000D01*
X141327142Y-142102380D01*
X141565238Y-142102380D01*
X141660476Y-142150000D01*
X141708095Y-142197619D01*
X141755714Y-142292857D01*
X141755714Y-142388095D01*
X141708095Y-142530952D01*
X141136666Y-143102380D01*
X141755714Y-143102380D01*
X183033333Y-76147142D02*
X182985714Y-76194761D01*
X182842857Y-76242380D01*
X182747619Y-76242380D01*
X182604761Y-76194761D01*
X182509523Y-76099523D01*
X182461904Y-76004285D01*
X182414285Y-75813809D01*
X182414285Y-75670952D01*
X182461904Y-75480476D01*
X182509523Y-75385238D01*
X182604761Y-75290000D01*
X182747619Y-75242380D01*
X182842857Y-75242380D01*
X182985714Y-75290000D01*
X183033333Y-75337619D01*
X183938095Y-75242380D02*
X183461904Y-75242380D01*
X183414285Y-75718571D01*
X183461904Y-75670952D01*
X183557142Y-75623333D01*
X183795238Y-75623333D01*
X183890476Y-75670952D01*
X183938095Y-75718571D01*
X183985714Y-75813809D01*
X183985714Y-76051904D01*
X183938095Y-76147142D01*
X183890476Y-76194761D01*
X183795238Y-76242380D01*
X183557142Y-76242380D01*
X183461904Y-76194761D01*
X183414285Y-76147142D01*
X145547142Y-80176666D02*
X145594761Y-80224285D01*
X145642380Y-80367142D01*
X145642380Y-80462380D01*
X145594761Y-80605238D01*
X145499523Y-80700476D01*
X145404285Y-80748095D01*
X145213809Y-80795714D01*
X145070952Y-80795714D01*
X144880476Y-80748095D01*
X144785238Y-80700476D01*
X144690000Y-80605238D01*
X144642380Y-80462380D01*
X144642380Y-80367142D01*
X144690000Y-80224285D01*
X144737619Y-80176666D01*
X144642380Y-79843333D02*
X144642380Y-79224285D01*
X145023333Y-79557619D01*
X145023333Y-79414761D01*
X145070952Y-79319523D01*
X145118571Y-79271904D01*
X145213809Y-79224285D01*
X145451904Y-79224285D01*
X145547142Y-79271904D01*
X145594761Y-79319523D01*
X145642380Y-79414761D01*
X145642380Y-79700476D01*
X145594761Y-79795714D01*
X145547142Y-79843333D01*
X134117142Y-72556666D02*
X134164761Y-72604285D01*
X134212380Y-72747142D01*
X134212380Y-72842380D01*
X134164761Y-72985238D01*
X134069523Y-73080476D01*
X133974285Y-73128095D01*
X133783809Y-73175714D01*
X133640952Y-73175714D01*
X133450476Y-73128095D01*
X133355238Y-73080476D01*
X133260000Y-72985238D01*
X133212380Y-72842380D01*
X133212380Y-72747142D01*
X133260000Y-72604285D01*
X133307619Y-72556666D01*
X134212380Y-72080476D02*
X134212380Y-71890000D01*
X134164761Y-71794761D01*
X134117142Y-71747142D01*
X133974285Y-71651904D01*
X133783809Y-71604285D01*
X133402857Y-71604285D01*
X133307619Y-71651904D01*
X133260000Y-71699523D01*
X133212380Y-71794761D01*
X133212380Y-71985238D01*
X133260000Y-72080476D01*
X133307619Y-72128095D01*
X133402857Y-72175714D01*
X133640952Y-72175714D01*
X133736190Y-72128095D01*
X133783809Y-72080476D01*
X133831428Y-71985238D01*
X133831428Y-71794761D01*
X133783809Y-71699523D01*
X133736190Y-71651904D01*
X133640952Y-71604285D01*
X137963809Y-68271190D02*
X137963809Y-68747380D01*
X137630476Y-67747380D02*
X137963809Y-68271190D01*
X138297142Y-67747380D01*
X138582857Y-67842619D02*
X138630476Y-67795000D01*
X138725714Y-67747380D01*
X138963809Y-67747380D01*
X139059047Y-67795000D01*
X139106666Y-67842619D01*
X139154285Y-67937857D01*
X139154285Y-68033095D01*
X139106666Y-68175952D01*
X138535238Y-68747380D01*
X139154285Y-68747380D01*
X176842380Y-93385476D02*
X176366190Y-93718809D01*
X176842380Y-93956904D02*
X175842380Y-93956904D01*
X175842380Y-93575952D01*
X175890000Y-93480714D01*
X175937619Y-93433095D01*
X176032857Y-93385476D01*
X176175714Y-93385476D01*
X176270952Y-93433095D01*
X176318571Y-93480714D01*
X176366190Y-93575952D01*
X176366190Y-93956904D01*
X176842380Y-92956904D02*
X175842380Y-92956904D01*
X176842380Y-92385476D01*
X175842380Y-92385476D01*
X176842380Y-91385476D02*
X176842380Y-91956904D01*
X176842380Y-91671190D02*
X175842380Y-91671190D01*
X175985238Y-91766428D01*
X176080476Y-91861666D01*
X176128095Y-91956904D01*
X145547142Y-127166666D02*
X145594761Y-127214285D01*
X145642380Y-127357142D01*
X145642380Y-127452380D01*
X145594761Y-127595238D01*
X145499523Y-127690476D01*
X145404285Y-127738095D01*
X145213809Y-127785714D01*
X145070952Y-127785714D01*
X144880476Y-127738095D01*
X144785238Y-127690476D01*
X144690000Y-127595238D01*
X144642380Y-127452380D01*
X144642380Y-127357142D01*
X144690000Y-127214285D01*
X144737619Y-127166666D01*
X145642380Y-126214285D02*
X145642380Y-126785714D01*
X145642380Y-126500000D02*
X144642380Y-126500000D01*
X144785238Y-126595238D01*
X144880476Y-126690476D01*
X144928095Y-126785714D01*
X139366666Y-78402380D02*
X139366666Y-79116666D01*
X139319047Y-79259523D01*
X139223809Y-79354761D01*
X139080952Y-79402380D01*
X138985714Y-79402380D01*
X140271428Y-78735714D02*
X140271428Y-79402380D01*
X140033333Y-78354761D02*
X139795238Y-79069047D01*
X140414285Y-79069047D01*
X169382380Y-148170833D02*
X170096666Y-148170833D01*
X170239523Y-148218452D01*
X170334761Y-148313690D01*
X170382380Y-148456547D01*
X170382380Y-148551785D01*
X169382380Y-147789880D02*
X169382380Y-147123214D01*
X170382380Y-147551785D01*
X131746666Y-78402380D02*
X131746666Y-79116666D01*
X131699047Y-79259523D01*
X131603809Y-79354761D01*
X131460952Y-79402380D01*
X131365714Y-79402380D01*
X132127619Y-78402380D02*
X132746666Y-78402380D01*
X132413333Y-78783333D01*
X132556190Y-78783333D01*
X132651428Y-78830952D01*
X132699047Y-78878571D01*
X132746666Y-78973809D01*
X132746666Y-79211904D01*
X132699047Y-79307142D01*
X132651428Y-79354761D01*
X132556190Y-79402380D01*
X132270476Y-79402380D01*
X132175238Y-79354761D01*
X132127619Y-79307142D01*
X185086666Y-78407380D02*
X185086666Y-79121666D01*
X185039047Y-79264523D01*
X184943809Y-79359761D01*
X184800952Y-79407380D01*
X184705714Y-79407380D01*
X185991428Y-78407380D02*
X185800952Y-78407380D01*
X185705714Y-78455000D01*
X185658095Y-78502619D01*
X185562857Y-78645476D01*
X185515238Y-78835952D01*
X185515238Y-79216904D01*
X185562857Y-79312142D01*
X185610476Y-79359761D01*
X185705714Y-79407380D01*
X185896190Y-79407380D01*
X185991428Y-79359761D01*
X186039047Y-79312142D01*
X186086666Y-79216904D01*
X186086666Y-78978809D01*
X186039047Y-78883571D01*
X185991428Y-78835952D01*
X185896190Y-78788333D01*
X185705714Y-78788333D01*
X185610476Y-78835952D01*
X185562857Y-78883571D01*
X185515238Y-78978809D01*
X181763333Y-133297142D02*
X181715714Y-133344761D01*
X181572857Y-133392380D01*
X181477619Y-133392380D01*
X181334761Y-133344761D01*
X181239523Y-133249523D01*
X181191904Y-133154285D01*
X181144285Y-132963809D01*
X181144285Y-132820952D01*
X181191904Y-132630476D01*
X181239523Y-132535238D01*
X181334761Y-132440000D01*
X181477619Y-132392380D01*
X181572857Y-132392380D01*
X181715714Y-132440000D01*
X181763333Y-132487619D01*
X182620476Y-132392380D02*
X182430000Y-132392380D01*
X182334761Y-132440000D01*
X182287142Y-132487619D01*
X182191904Y-132630476D01*
X182144285Y-132820952D01*
X182144285Y-133201904D01*
X182191904Y-133297142D01*
X182239523Y-133344761D01*
X182334761Y-133392380D01*
X182525238Y-133392380D01*
X182620476Y-133344761D01*
X182668095Y-133297142D01*
X182715714Y-133201904D01*
X182715714Y-132963809D01*
X182668095Y-132868571D01*
X182620476Y-132820952D01*
X182525238Y-132773333D01*
X182334761Y-132773333D01*
X182239523Y-132820952D01*
X182191904Y-132868571D01*
X182144285Y-132963809D01*
X170772380Y-67460833D02*
X171486666Y-67460833D01*
X171629523Y-67508452D01*
X171724761Y-67603690D01*
X171772380Y-67746547D01*
X171772380Y-67841785D01*
X171200952Y-66841785D02*
X171153333Y-66937023D01*
X171105714Y-66984642D01*
X171010476Y-67032261D01*
X170962857Y-67032261D01*
X170867619Y-66984642D01*
X170820000Y-66937023D01*
X170772380Y-66841785D01*
X170772380Y-66651309D01*
X170820000Y-66556071D01*
X170867619Y-66508452D01*
X170962857Y-66460833D01*
X171010476Y-66460833D01*
X171105714Y-66508452D01*
X171153333Y-66556071D01*
X171200952Y-66651309D01*
X171200952Y-66841785D01*
X171248571Y-66937023D01*
X171296190Y-66984642D01*
X171391428Y-67032261D01*
X171581904Y-67032261D01*
X171677142Y-66984642D01*
X171724761Y-66937023D01*
X171772380Y-66841785D01*
X171772380Y-66651309D01*
X171724761Y-66556071D01*
X171677142Y-66508452D01*
X171581904Y-66460833D01*
X171391428Y-66460833D01*
X171296190Y-66508452D01*
X171248571Y-66556071D01*
X171200952Y-66651309D01*
X177466666Y-78407380D02*
X177466666Y-79121666D01*
X177419047Y-79264523D01*
X177323809Y-79359761D01*
X177180952Y-79407380D01*
X177085714Y-79407380D01*
X178419047Y-78407380D02*
X177942857Y-78407380D01*
X177895238Y-78883571D01*
X177942857Y-78835952D01*
X178038095Y-78788333D01*
X178276190Y-78788333D01*
X178371428Y-78835952D01*
X178419047Y-78883571D01*
X178466666Y-78978809D01*
X178466666Y-79216904D01*
X178419047Y-79312142D01*
X178371428Y-79359761D01*
X178276190Y-79407380D01*
X178038095Y-79407380D01*
X177942857Y-79359761D01*
X177895238Y-79312142D01*
X137963809Y-139391190D02*
X137963809Y-139867380D01*
X137630476Y-138867380D02*
X137963809Y-139391190D01*
X138297142Y-138867380D01*
X139154285Y-139867380D02*
X138582857Y-139867380D01*
X138868571Y-139867380D02*
X138868571Y-138867380D01*
X138773333Y-139010238D01*
X138678095Y-139105476D01*
X138582857Y-139153095D01*
D12*
X157472238Y-105984523D02*
X157472238Y-104714523D01*
X158802714Y-105863571D02*
X158742238Y-105924047D01*
X158560809Y-105984523D01*
X158439857Y-105984523D01*
X158258428Y-105924047D01*
X158137476Y-105803095D01*
X158077000Y-105682142D01*
X158016523Y-105440238D01*
X158016523Y-105258809D01*
X158077000Y-105016904D01*
X158137476Y-104895952D01*
X158258428Y-104775000D01*
X158439857Y-104714523D01*
X158560809Y-104714523D01*
X158742238Y-104775000D01*
X158802714Y-104835476D01*
X160012238Y-105984523D02*
X159286523Y-105984523D01*
X159649380Y-105984523D02*
X159649380Y-104714523D01*
X159528428Y-104895952D01*
X159407476Y-105016904D01*
X159286523Y-105077380D01*
D11*
X141123333Y-62362142D02*
X141075714Y-62409761D01*
X140932857Y-62457380D01*
X140837619Y-62457380D01*
X140694761Y-62409761D01*
X140599523Y-62314523D01*
X140551904Y-62219285D01*
X140504285Y-62028809D01*
X140504285Y-61885952D01*
X140551904Y-61695476D01*
X140599523Y-61600238D01*
X140694761Y-61505000D01*
X140837619Y-61457380D01*
X140932857Y-61457380D01*
X141075714Y-61505000D01*
X141123333Y-61552619D01*
X141456666Y-61457380D02*
X142123333Y-61457380D01*
X141694761Y-62457380D01*
D13*
X182145000Y-138202936D02*
X182145000Y-138657064D01*
X183615000Y-138202936D02*
X183615000Y-138657064D01*
X176205000Y-145300000D02*
X176205000Y-146800000D01*
X181955000Y-142800000D02*
X177455000Y-142800000D01*
X183205000Y-146800000D02*
X183205000Y-145300000D01*
X177455000Y-149300000D02*
X181955000Y-149300000D01*
X136151252Y-140235000D02*
X135628748Y-140235000D01*
X136151252Y-141705000D02*
X135628748Y-141705000D01*
X135836252Y-59590000D02*
X135313748Y-59590000D01*
X135836252Y-61060000D02*
X135313748Y-61060000D01*
X174725000Y-105637064D02*
X174725000Y-105182936D01*
X173255000Y-105637064D02*
X173255000Y-105182936D01*
X134560000Y-82550000D02*
X134560000Y-130870000D01*
X134560000Y-81280000D02*
X134560000Y-79950000D01*
X134560000Y-82550000D02*
X137220000Y-82550000D01*
X137220000Y-82550000D02*
X137220000Y-130870000D01*
X134560000Y-79950000D02*
X135890000Y-79950000D01*
X134560000Y-130870000D02*
X137220000Y-130870000D01*
X137533748Y-77370000D02*
X138056252Y-77370000D01*
X137533748Y-78840000D02*
X138056252Y-78840000D01*
X144760000Y-72390000D02*
X144760000Y-68890000D01*
X144760000Y-72390000D02*
X144760000Y-74340000D01*
X134640000Y-72390000D02*
X134640000Y-74340000D01*
X134640000Y-72390000D02*
X134640000Y-70440000D01*
X180280000Y-82555000D02*
X180280000Y-130875000D01*
X180280000Y-81285000D02*
X180280000Y-79955000D01*
X180280000Y-130875000D02*
X182940000Y-130875000D01*
X182940000Y-82555000D02*
X182940000Y-130875000D01*
X180280000Y-82555000D02*
X182940000Y-82555000D01*
X180280000Y-79955000D02*
X181610000Y-79955000D01*
X141231252Y-140235000D02*
X140708748Y-140235000D01*
X141231252Y-141705000D02*
X140708748Y-141705000D01*
X182938748Y-76735000D02*
X183461252Y-76735000D01*
X182938748Y-78205000D02*
X183461252Y-78205000D01*
X142775000Y-79748748D02*
X142775000Y-80271252D01*
X144245000Y-79748748D02*
X144245000Y-80271252D01*
X132815000Y-72128748D02*
X132815000Y-72651252D01*
X131345000Y-72128748D02*
X131345000Y-72651252D01*
X141565000Y-67295000D02*
X135315000Y-67295000D01*
X141565000Y-62245000D02*
X135315000Y-62245000D01*
X141565000Y-67295000D02*
G75*
G03*
X141565000Y-62245000I0J2525000D01*
G01*
X135315000Y-62245000D02*
G75*
G03*
X135315000Y-67295000I0J-2525000D01*
G01*
X172590000Y-103025000D02*
X175390000Y-103025000D01*
X175390000Y-79825000D02*
X172590000Y-79825000D01*
X175390000Y-82535000D02*
X172590000Y-82535000D01*
X175390000Y-103025000D02*
X175390000Y-79825000D01*
X172590000Y-79825000D02*
X172590000Y-103025000D01*
X142775000Y-126738748D02*
X142775000Y-127261252D01*
X144245000Y-126738748D02*
X144245000Y-127261252D01*
X138370000Y-130870000D02*
X141030000Y-130870000D01*
X138370000Y-81280000D02*
X138370000Y-79950000D01*
X138370000Y-82550000D02*
X141030000Y-82550000D01*
X141030000Y-82550000D02*
X141030000Y-130870000D01*
X138370000Y-79950000D02*
X139700000Y-79950000D01*
X138370000Y-82550000D02*
X138370000Y-130870000D01*
X167740000Y-151087500D02*
X149760000Y-151087500D01*
X167740000Y-144587500D02*
X167740000Y-151087500D01*
X156700000Y-144587500D02*
X156700000Y-144587500D01*
X169040000Y-152397500D02*
X148460000Y-152397500D01*
X148460000Y-143277500D02*
X169040000Y-143277500D01*
X163830000Y-142887500D02*
X164330000Y-141887500D01*
X149760000Y-151087500D02*
X149760000Y-144587500D01*
X163330000Y-141887500D02*
X163830000Y-142887500D01*
X164330000Y-141887500D02*
X163330000Y-141887500D01*
X169040000Y-143277500D02*
X169040000Y-152397500D01*
X148460000Y-152397500D02*
X148460000Y-143277500D01*
X149760000Y-144587500D02*
X156700000Y-144587500D01*
X160800000Y-143277500D02*
X160800000Y-144587500D01*
X156700000Y-144587500D02*
X156700000Y-143277500D01*
X160800000Y-144587500D02*
X167740000Y-144587500D01*
X130750000Y-130870000D02*
X133410000Y-130870000D01*
X133410000Y-82550000D02*
X133410000Y-130870000D01*
X130750000Y-81280000D02*
X130750000Y-79950000D01*
X130750000Y-79950000D02*
X132080000Y-79950000D01*
X130750000Y-82550000D02*
X130750000Y-130870000D01*
X130750000Y-82550000D02*
X133410000Y-82550000D01*
X184090000Y-82555000D02*
X184090000Y-130875000D01*
X184090000Y-130875000D02*
X186750000Y-130875000D01*
X186750000Y-82555000D02*
X186750000Y-130875000D01*
X184090000Y-82555000D02*
X186750000Y-82555000D01*
X184090000Y-79955000D02*
X185420000Y-79955000D01*
X184090000Y-81285000D02*
X184090000Y-79955000D01*
X181668748Y-133885000D02*
X182191252Y-133885000D01*
X181668748Y-135355000D02*
X182191252Y-135355000D01*
X179590000Y-76207500D02*
X179090000Y-75707500D01*
X174180000Y-58767500D02*
X186500000Y-58767500D01*
X174180000Y-67127500D02*
X174180000Y-58767500D01*
X186500000Y-75487500D02*
X186500000Y-71227500D01*
X178590000Y-76207500D02*
X179590000Y-76207500D01*
X186500000Y-58767500D02*
X186500000Y-67127500D01*
X179090000Y-75707500D02*
X178590000Y-76207500D01*
X174180000Y-75487500D02*
X186500000Y-75487500D01*
X174180000Y-71227500D02*
X174180000Y-75487500D01*
X176470000Y-82555000D02*
X176470000Y-130875000D01*
X176470000Y-130875000D02*
X179130000Y-130875000D01*
X176470000Y-81285000D02*
X176470000Y-79955000D01*
X176470000Y-79955000D02*
X177800000Y-79955000D01*
X179130000Y-82555000D02*
X179130000Y-130875000D01*
X176470000Y-82555000D02*
X179130000Y-82555000D01*
X141565000Y-138415000D02*
X135315000Y-138415000D01*
X141565000Y-133365000D02*
X135315000Y-133365000D01*
X141565000Y-138415000D02*
G75*
G03*
X141565000Y-133365000I0J2525000D01*
G01*
X135315000Y-133365000D02*
G75*
G03*
X135315000Y-138415000I0J-2525000D01*
G01*
D14*
X151727000Y-131699000D02*
X165697000Y-131699000D01*
X150354000Y-79121000D02*
X165697000Y-79121000D01*
D13*
X141551252Y-59590000D02*
X141028748Y-59590000D01*
X141551252Y-61060000D02*
X141028748Y-61060000D01*
%LPC*%
D15*
X182880000Y-137517500D03*
X182880000Y-139342500D03*
D16*
X182955000Y-143800000D03*
X176455000Y-143800000D03*
X182955000Y-148300000D03*
X176455000Y-148300000D03*
D17*
X136840000Y-140970000D03*
X134940000Y-140970000D03*
X136525000Y-60325000D03*
X134625000Y-60325000D03*
D18*
X173990000Y-106322500D03*
X173990000Y-104497500D03*
D19*
X135890000Y-81280000D03*
D20*
X135890000Y-83820000D03*
X135890000Y-86360000D03*
X135890000Y-88900000D03*
X135890000Y-91440000D03*
X135890000Y-93980000D03*
X135890000Y-96520000D03*
X135890000Y-99060000D03*
X135890000Y-101600000D03*
X135890000Y-104140000D03*
X135890000Y-106680000D03*
X135890000Y-109220000D03*
X135890000Y-111760000D03*
X135890000Y-114300000D03*
X135890000Y-116840000D03*
X135890000Y-119380000D03*
X135890000Y-121920000D03*
X135890000Y-124460000D03*
X135890000Y-127000000D03*
X135890000Y-129540000D03*
D21*
X136845000Y-78105000D03*
X138745000Y-78105000D03*
D22*
X144145000Y-69890000D03*
X142875000Y-69890000D03*
X141605000Y-69890000D03*
X140335000Y-69890000D03*
X139065000Y-69890000D03*
X137795000Y-69890000D03*
X136525000Y-69890000D03*
X135255000Y-69890000D03*
X135255000Y-74890000D03*
X136525000Y-74890000D03*
X137795000Y-74890000D03*
X139065000Y-74890000D03*
X140335000Y-74890000D03*
X141605000Y-74890000D03*
X142875000Y-74890000D03*
X144145000Y-74890000D03*
D19*
X181610000Y-81285000D03*
D20*
X181610000Y-83825000D03*
X181610000Y-86365000D03*
X181610000Y-88905000D03*
X181610000Y-91445000D03*
X181610000Y-93985000D03*
X181610000Y-96525000D03*
X181610000Y-99065000D03*
X181610000Y-101605000D03*
X181610000Y-104145000D03*
X181610000Y-106685000D03*
X181610000Y-109225000D03*
X181610000Y-111765000D03*
X181610000Y-114305000D03*
X181610000Y-116845000D03*
X181610000Y-119385000D03*
X181610000Y-121925000D03*
X181610000Y-124465000D03*
X181610000Y-127005000D03*
X181610000Y-129545000D03*
D17*
X141920000Y-140970000D03*
X140020000Y-140970000D03*
D21*
X182250000Y-77470000D03*
X184150000Y-77470000D03*
D23*
X143510000Y-79060000D03*
X143510000Y-80960000D03*
X132080000Y-71440000D03*
X132080000Y-73340000D03*
D24*
X140880000Y-64770000D03*
X136000000Y-64770000D03*
D25*
X173990000Y-81265000D03*
D26*
X173990000Y-83805000D03*
X173990000Y-86345000D03*
X173990000Y-88885000D03*
X173990000Y-91425000D03*
X173990000Y-93965000D03*
X173990000Y-96505000D03*
X173990000Y-99045000D03*
X173990000Y-101585000D03*
D23*
X143510000Y-126050000D03*
X143510000Y-127950000D03*
D19*
X139700000Y-81280000D03*
D20*
X139700000Y-83820000D03*
X139700000Y-86360000D03*
X139700000Y-88900000D03*
X139700000Y-91440000D03*
X139700000Y-93980000D03*
X139700000Y-96520000D03*
X139700000Y-99060000D03*
X139700000Y-101600000D03*
X139700000Y-104140000D03*
X139700000Y-106680000D03*
X139700000Y-109220000D03*
X139700000Y-111760000D03*
X139700000Y-114300000D03*
X139700000Y-116840000D03*
X139700000Y-119380000D03*
X139700000Y-121920000D03*
X139700000Y-124460000D03*
X139700000Y-127000000D03*
X139700000Y-129540000D03*
D27*
X163830000Y-146567500D03*
D28*
X163830000Y-149107500D03*
X161290000Y-146567500D03*
X161290000Y-149107500D03*
X158750000Y-146567500D03*
X158750000Y-149107500D03*
X156210000Y-146567500D03*
X156210000Y-149107500D03*
X153670000Y-146567500D03*
X153670000Y-149107500D03*
D19*
X132080000Y-81280000D03*
D20*
X132080000Y-83820000D03*
X132080000Y-86360000D03*
X132080000Y-88900000D03*
X132080000Y-91440000D03*
X132080000Y-93980000D03*
X132080000Y-96520000D03*
X132080000Y-99060000D03*
X132080000Y-101600000D03*
X132080000Y-104140000D03*
X132080000Y-106680000D03*
X132080000Y-109220000D03*
X132080000Y-111760000D03*
X132080000Y-114300000D03*
X132080000Y-116840000D03*
X132080000Y-119380000D03*
X132080000Y-121920000D03*
X132080000Y-124460000D03*
X132080000Y-127000000D03*
X132080000Y-129540000D03*
D19*
X185420000Y-81285000D03*
D20*
X185420000Y-83825000D03*
X185420000Y-86365000D03*
X185420000Y-88905000D03*
X185420000Y-91445000D03*
X185420000Y-93985000D03*
X185420000Y-96525000D03*
X185420000Y-99065000D03*
X185420000Y-101605000D03*
X185420000Y-104145000D03*
X185420000Y-106685000D03*
X185420000Y-109225000D03*
X185420000Y-111765000D03*
X185420000Y-114305000D03*
X185420000Y-116845000D03*
X185420000Y-119385000D03*
X185420000Y-121925000D03*
X185420000Y-124465000D03*
X185420000Y-127005000D03*
X185420000Y-129545000D03*
D21*
X180980000Y-134620000D03*
X182880000Y-134620000D03*
D19*
X179090000Y-73887500D03*
D28*
X181590000Y-73887500D03*
X181590000Y-71887500D03*
X179090000Y-71887500D03*
D29*
X186360000Y-69177500D03*
X174320000Y-69177500D03*
D19*
X177800000Y-81285000D03*
D20*
X177800000Y-83825000D03*
X177800000Y-86365000D03*
X177800000Y-88905000D03*
X177800000Y-91445000D03*
X177800000Y-93985000D03*
X177800000Y-96525000D03*
X177800000Y-99065000D03*
X177800000Y-101605000D03*
X177800000Y-104145000D03*
X177800000Y-106685000D03*
X177800000Y-109225000D03*
X177800000Y-111765000D03*
X177800000Y-114305000D03*
X177800000Y-116845000D03*
X177800000Y-119385000D03*
X177800000Y-121925000D03*
X177800000Y-124465000D03*
X177800000Y-127005000D03*
X177800000Y-129545000D03*
D24*
X140880000Y-135890000D03*
X136000000Y-135890000D03*
D30*
X150933000Y-81280000D03*
D31*
X150933000Y-83820000D03*
X150933000Y-86360000D03*
X150933000Y-88900000D03*
X150933000Y-91440000D03*
X150933000Y-93980000D03*
X150933000Y-96520000D03*
X150933000Y-99060000D03*
X150933000Y-101600000D03*
X150933000Y-104140000D03*
X150933000Y-106680000D03*
X150933000Y-109220000D03*
X150933000Y-111760000D03*
X150933000Y-114300000D03*
X150933000Y-116840000D03*
X150933000Y-119380000D03*
X150933000Y-121920000D03*
X150933000Y-124460000D03*
X150933000Y-127000000D03*
X150933000Y-129540000D03*
X166491000Y-129540000D03*
X166491000Y-127000000D03*
X166491000Y-124460000D03*
X166491000Y-121920000D03*
X166491000Y-119380000D03*
X166491000Y-116840000D03*
X166491000Y-114300000D03*
X166491000Y-111760000D03*
X166491000Y-109220000D03*
X166491000Y-106680000D03*
X166491000Y-104140000D03*
X166491000Y-101600000D03*
X166491000Y-99060000D03*
X166491000Y-96520000D03*
X166491000Y-93980000D03*
X166491000Y-91440000D03*
X166491000Y-88900000D03*
X166491000Y-86360000D03*
X166491000Y-83820000D03*
X166491000Y-81280000D03*
D17*
X142240000Y-60325000D03*
X140340000Y-60325000D03*
M02*
