%TF.GenerationSoftware,KiCad,Pcbnew,(6.0.10)*%
%TF.CreationDate,2023-01-04T16:16:52-06:00*%
%TF.ProjectId,AT89S52_dev_board,41543839-5335-4325-9f64-65765f626f61,rev?*%
%TF.SameCoordinates,Original*%
%TF.FileFunction,Drillmap*%
%TF.FilePolarity,Positive*%
%FSLAX45Y45*%
G04 Gerber Fmt 4.5, Leading zero omitted, Abs format (unit mm)*
G04 Created by KiCad (PCBNEW (6.0.10)) date 2023-01-04 16:16:52*
%MOMM*%
%LPD*%
G01*
G04 APERTURE LIST*
%ADD10C,0.100000*%
%ADD11C,0.200000*%
G04 APERTURE END LIST*
D10*
X18859500Y-5842000D02*
X12890500Y-5842000D01*
X12890500Y-5842000D02*
X12890500Y-15303500D01*
X12890500Y-15303500D02*
X18859500Y-15303500D01*
X18859500Y-15303500D02*
X18859500Y-5842000D01*
D11*
X13143119Y-15618976D02*
X13143119Y-15418976D01*
X13190738Y-15418976D01*
X13219309Y-15428500D01*
X13238357Y-15447548D01*
X13247881Y-15466595D01*
X13257405Y-15504690D01*
X13257405Y-15533262D01*
X13247881Y-15571357D01*
X13238357Y-15590405D01*
X13219309Y-15609452D01*
X13190738Y-15618976D01*
X13143119Y-15618976D01*
X13343119Y-15618976D02*
X13343119Y-15485643D01*
X13343119Y-15523738D02*
X13352643Y-15504690D01*
X13362167Y-15495167D01*
X13381214Y-15485643D01*
X13400262Y-15485643D01*
X13466928Y-15618976D02*
X13466928Y-15485643D01*
X13466928Y-15418976D02*
X13457405Y-15428500D01*
X13466928Y-15438024D01*
X13476452Y-15428500D01*
X13466928Y-15418976D01*
X13466928Y-15438024D01*
X13590738Y-15618976D02*
X13571690Y-15609452D01*
X13562167Y-15590405D01*
X13562167Y-15418976D01*
X13695500Y-15618976D02*
X13676452Y-15609452D01*
X13666928Y-15590405D01*
X13666928Y-15418976D01*
X13924071Y-15618976D02*
X13924071Y-15418976D01*
X13990738Y-15561833D01*
X14057405Y-15418976D01*
X14057405Y-15618976D01*
X14238357Y-15618976D02*
X14238357Y-15514214D01*
X14228833Y-15495167D01*
X14209786Y-15485643D01*
X14171690Y-15485643D01*
X14152643Y-15495167D01*
X14238357Y-15609452D02*
X14219309Y-15618976D01*
X14171690Y-15618976D01*
X14152643Y-15609452D01*
X14143119Y-15590405D01*
X14143119Y-15571357D01*
X14152643Y-15552309D01*
X14171690Y-15542786D01*
X14219309Y-15542786D01*
X14238357Y-15533262D01*
X14333595Y-15485643D02*
X14333595Y-15685643D01*
X14333595Y-15495167D02*
X14352643Y-15485643D01*
X14390738Y-15485643D01*
X14409786Y-15495167D01*
X14419309Y-15504690D01*
X14428833Y-15523738D01*
X14428833Y-15580881D01*
X14419309Y-15599928D01*
X14409786Y-15609452D01*
X14390738Y-15618976D01*
X14352643Y-15618976D01*
X14333595Y-15609452D01*
X14514548Y-15599928D02*
X14524071Y-15609452D01*
X14514548Y-15618976D01*
X14505024Y-15609452D01*
X14514548Y-15599928D01*
X14514548Y-15618976D01*
X14514548Y-15495167D02*
X14524071Y-15504690D01*
X14514548Y-15514214D01*
X14505024Y-15504690D01*
X14514548Y-15495167D01*
X14514548Y-15514214D01*
M02*
