%TF.GenerationSoftware,KiCad,Pcbnew,(6.0.10)*%
%TF.CreationDate,2023-01-04T16:16:52-06:00*%
%TF.ProjectId,AT89S52_dev_board,41543839-5335-4325-9f64-65765f626f61,rev?*%
%TF.SameCoordinates,Original*%
%TF.FileFunction,Drillmap*%
%TF.FilePolarity,Positive*%
%FSLAX45Y45*%
G04 Gerber Fmt 4.5, Leading zero omitted, Abs format (unit mm)*
G04 Created by KiCad (PCBNEW (6.0.10)) date 2023-01-04 16:16:52*
%MOMM*%
%LPD*%
G01*
G04 APERTURE LIST*
%ADD10C,0.100000*%
%ADD11C,0.200000*%
%ADD12C,0.040000*%
%ADD13C,0.075900*%
%ADD14C,0.080000*%
%ADD15C,0.092000*%
%ADD16C,0.110000*%
%ADD17C,0.233000*%
G04 APERTURE END LIST*
D10*
X18859500Y-5842000D02*
X12890500Y-5842000D01*
X12890500Y-5842000D02*
X12890500Y-15303500D01*
X12890500Y-15303500D02*
X18859500Y-15303500D01*
X18859500Y-15303500D02*
X18859500Y-5842000D01*
D11*
D12*
X13188000Y-7536500D02*
X13228000Y-7576500D01*
X13228000Y-7536500D02*
X13188000Y-7576500D01*
X13823000Y-6012500D02*
X13863000Y-6052500D01*
X13863000Y-6012500D02*
X13823000Y-6052500D01*
X13823000Y-14077000D02*
X13863000Y-14117000D01*
X13863000Y-14077000D02*
X13823000Y-14117000D01*
X14585000Y-6965000D02*
X14625000Y-7005000D01*
X14625000Y-6965000D02*
X14585000Y-7005000D01*
X15474000Y-9886000D02*
X15514000Y-9926000D01*
X15514000Y-9886000D02*
X15474000Y-9926000D01*
X15601000Y-10140000D02*
X15641000Y-10180000D01*
X15641000Y-10140000D02*
X15601000Y-10180000D01*
X15855000Y-10648000D02*
X15895000Y-10688000D01*
X15895000Y-10648000D02*
X15855000Y-10688000D01*
X15982000Y-10394000D02*
X16022000Y-10434000D01*
X16022000Y-10394000D02*
X15982000Y-10434000D01*
D13*
X15131250Y-8128000D02*
G75*
G03*
X15131250Y-8128000I-37950J0D01*
G01*
X15131250Y-8382000D02*
G75*
G03*
X15131250Y-8382000I-37950J0D01*
G01*
X15131250Y-8636000D02*
G75*
G03*
X15131250Y-8636000I-37950J0D01*
G01*
X15131250Y-8890000D02*
G75*
G03*
X15131250Y-8890000I-37950J0D01*
G01*
X15131250Y-9144000D02*
G75*
G03*
X15131250Y-9144000I-37950J0D01*
G01*
X15131250Y-9398000D02*
G75*
G03*
X15131250Y-9398000I-37950J0D01*
G01*
X15131250Y-9652000D02*
G75*
G03*
X15131250Y-9652000I-37950J0D01*
G01*
X15131250Y-9906000D02*
G75*
G03*
X15131250Y-9906000I-37950J0D01*
G01*
X15131250Y-10160000D02*
G75*
G03*
X15131250Y-10160000I-37950J0D01*
G01*
X15131250Y-10414000D02*
G75*
G03*
X15131250Y-10414000I-37950J0D01*
G01*
X15131250Y-10668000D02*
G75*
G03*
X15131250Y-10668000I-37950J0D01*
G01*
X15131250Y-10922000D02*
G75*
G03*
X15131250Y-10922000I-37950J0D01*
G01*
X15131250Y-11176000D02*
G75*
G03*
X15131250Y-11176000I-37950J0D01*
G01*
X15131250Y-11430000D02*
G75*
G03*
X15131250Y-11430000I-37950J0D01*
G01*
X15131250Y-11684000D02*
G75*
G03*
X15131250Y-11684000I-37950J0D01*
G01*
X15131250Y-11938000D02*
G75*
G03*
X15131250Y-11938000I-37950J0D01*
G01*
X15131250Y-12192000D02*
G75*
G03*
X15131250Y-12192000I-37950J0D01*
G01*
X15131250Y-12446000D02*
G75*
G03*
X15131250Y-12446000I-37950J0D01*
G01*
X15131250Y-12700000D02*
G75*
G03*
X15131250Y-12700000I-37950J0D01*
G01*
X15131250Y-12954000D02*
G75*
G03*
X15131250Y-12954000I-37950J0D01*
G01*
X16687050Y-8128000D02*
G75*
G03*
X16687050Y-8128000I-37950J0D01*
G01*
X16687050Y-8382000D02*
G75*
G03*
X16687050Y-8382000I-37950J0D01*
G01*
X16687050Y-8636000D02*
G75*
G03*
X16687050Y-8636000I-37950J0D01*
G01*
X16687050Y-8890000D02*
G75*
G03*
X16687050Y-8890000I-37950J0D01*
G01*
X16687050Y-9144000D02*
G75*
G03*
X16687050Y-9144000I-37950J0D01*
G01*
X16687050Y-9398000D02*
G75*
G03*
X16687050Y-9398000I-37950J0D01*
G01*
X16687050Y-9652000D02*
G75*
G03*
X16687050Y-9652000I-37950J0D01*
G01*
X16687050Y-9906000D02*
G75*
G03*
X16687050Y-9906000I-37950J0D01*
G01*
X16687050Y-10160000D02*
G75*
G03*
X16687050Y-10160000I-37950J0D01*
G01*
X16687050Y-10414000D02*
G75*
G03*
X16687050Y-10414000I-37950J0D01*
G01*
X16687050Y-10668000D02*
G75*
G03*
X16687050Y-10668000I-37950J0D01*
G01*
X16687050Y-10922000D02*
G75*
G03*
X16687050Y-10922000I-37950J0D01*
G01*
X16687050Y-11176000D02*
G75*
G03*
X16687050Y-11176000I-37950J0D01*
G01*
X16687050Y-11430000D02*
G75*
G03*
X16687050Y-11430000I-37950J0D01*
G01*
X16687050Y-11684000D02*
G75*
G03*
X16687050Y-11684000I-37950J0D01*
G01*
X16687050Y-11938000D02*
G75*
G03*
X16687050Y-11938000I-37950J0D01*
G01*
X16687050Y-12192000D02*
G75*
G03*
X16687050Y-12192000I-37950J0D01*
G01*
X16687050Y-12446000D02*
G75*
G03*
X16687050Y-12446000I-37950J0D01*
G01*
X16687050Y-12700000D02*
G75*
G03*
X16687050Y-12700000I-37950J0D01*
G01*
X16687050Y-12954000D02*
G75*
G03*
X16687050Y-12954000I-37950J0D01*
G01*
D14*
X13600000Y-6437000D02*
X13600000Y-6517000D01*
X13560000Y-6477000D02*
X13640000Y-6477000D01*
X13600000Y-13549000D02*
X13600000Y-13629000D01*
X13560000Y-13589000D02*
X13640000Y-13589000D01*
X14088000Y-6437000D02*
X14088000Y-6517000D01*
X14048000Y-6477000D02*
X14128000Y-6477000D01*
X14088000Y-13549000D02*
X14088000Y-13629000D01*
X14048000Y-13589000D02*
X14128000Y-13589000D01*
X17399000Y-8086500D02*
X17399000Y-8166500D01*
X17359000Y-8126500D02*
X17439000Y-8126500D01*
X17399000Y-8340500D02*
X17399000Y-8420500D01*
X17359000Y-8380500D02*
X17439000Y-8380500D01*
X17399000Y-8594500D02*
X17399000Y-8674500D01*
X17359000Y-8634500D02*
X17439000Y-8634500D01*
X17399000Y-8848500D02*
X17399000Y-8928500D01*
X17359000Y-8888500D02*
X17439000Y-8888500D01*
X17399000Y-9102500D02*
X17399000Y-9182500D01*
X17359000Y-9142500D02*
X17439000Y-9142500D01*
X17399000Y-9356500D02*
X17399000Y-9436500D01*
X17359000Y-9396500D02*
X17439000Y-9396500D01*
X17399000Y-9610500D02*
X17399000Y-9690500D01*
X17359000Y-9650500D02*
X17439000Y-9650500D01*
X17399000Y-9864500D02*
X17399000Y-9944500D01*
X17359000Y-9904500D02*
X17439000Y-9904500D01*
X17399000Y-10118500D02*
X17399000Y-10198500D01*
X17359000Y-10158500D02*
X17439000Y-10158500D01*
D15*
X17941527Y-7221277D02*
X17941527Y-7156223D01*
X17876473Y-7156223D01*
X17876473Y-7221277D01*
X17941527Y-7221277D01*
X17941527Y-7421277D02*
X17941527Y-7356223D01*
X17876473Y-7356223D01*
X17876473Y-7421277D01*
X17941527Y-7421277D01*
X18191527Y-7221277D02*
X18191527Y-7156223D01*
X18126473Y-7156223D01*
X18126473Y-7221277D01*
X18191527Y-7221277D01*
X18191527Y-7421277D02*
X18191527Y-7356223D01*
X18126473Y-7356223D01*
X18126473Y-7421277D01*
X18191527Y-7421277D01*
D10*
X13208000Y-8178000D02*
X13258000Y-8128000D01*
X13208000Y-8078000D01*
X13158000Y-8128000D01*
X13208000Y-8178000D01*
X13208000Y-8432000D02*
X13258000Y-8382000D01*
X13208000Y-8332000D01*
X13158000Y-8382000D01*
X13208000Y-8432000D01*
X13208000Y-8686000D02*
X13258000Y-8636000D01*
X13208000Y-8586000D01*
X13158000Y-8636000D01*
X13208000Y-8686000D01*
X13208000Y-8940000D02*
X13258000Y-8890000D01*
X13208000Y-8840000D01*
X13158000Y-8890000D01*
X13208000Y-8940000D01*
X13208000Y-9194000D02*
X13258000Y-9144000D01*
X13208000Y-9094000D01*
X13158000Y-9144000D01*
X13208000Y-9194000D01*
X13208000Y-9448000D02*
X13258000Y-9398000D01*
X13208000Y-9348000D01*
X13158000Y-9398000D01*
X13208000Y-9448000D01*
X13208000Y-9702000D02*
X13258000Y-9652000D01*
X13208000Y-9602000D01*
X13158000Y-9652000D01*
X13208000Y-9702000D01*
X13208000Y-9956000D02*
X13258000Y-9906000D01*
X13208000Y-9856000D01*
X13158000Y-9906000D01*
X13208000Y-9956000D01*
X13208000Y-10210000D02*
X13258000Y-10160000D01*
X13208000Y-10110000D01*
X13158000Y-10160000D01*
X13208000Y-10210000D01*
X13208000Y-10464000D02*
X13258000Y-10414000D01*
X13208000Y-10364000D01*
X13158000Y-10414000D01*
X13208000Y-10464000D01*
X13208000Y-10718000D02*
X13258000Y-10668000D01*
X13208000Y-10618000D01*
X13158000Y-10668000D01*
X13208000Y-10718000D01*
X13208000Y-10972000D02*
X13258000Y-10922000D01*
X13208000Y-10872000D01*
X13158000Y-10922000D01*
X13208000Y-10972000D01*
X13208000Y-11226000D02*
X13258000Y-11176000D01*
X13208000Y-11126000D01*
X13158000Y-11176000D01*
X13208000Y-11226000D01*
X13208000Y-11480000D02*
X13258000Y-11430000D01*
X13208000Y-11380000D01*
X13158000Y-11430000D01*
X13208000Y-11480000D01*
X13208000Y-11734000D02*
X13258000Y-11684000D01*
X13208000Y-11634000D01*
X13158000Y-11684000D01*
X13208000Y-11734000D01*
X13208000Y-11988000D02*
X13258000Y-11938000D01*
X13208000Y-11888000D01*
X13158000Y-11938000D01*
X13208000Y-11988000D01*
X13208000Y-12242000D02*
X13258000Y-12192000D01*
X13208000Y-12142000D01*
X13158000Y-12192000D01*
X13208000Y-12242000D01*
X13208000Y-12496000D02*
X13258000Y-12446000D01*
X13208000Y-12396000D01*
X13158000Y-12446000D01*
X13208000Y-12496000D01*
X13208000Y-12750000D02*
X13258000Y-12700000D01*
X13208000Y-12650000D01*
X13158000Y-12700000D01*
X13208000Y-12750000D01*
X13208000Y-13004000D02*
X13258000Y-12954000D01*
X13208000Y-12904000D01*
X13158000Y-12954000D01*
X13208000Y-13004000D01*
X13589000Y-8178000D02*
X13639000Y-8128000D01*
X13589000Y-8078000D01*
X13539000Y-8128000D01*
X13589000Y-8178000D01*
X13589000Y-8432000D02*
X13639000Y-8382000D01*
X13589000Y-8332000D01*
X13539000Y-8382000D01*
X13589000Y-8432000D01*
X13589000Y-8686000D02*
X13639000Y-8636000D01*
X13589000Y-8586000D01*
X13539000Y-8636000D01*
X13589000Y-8686000D01*
X13589000Y-8940000D02*
X13639000Y-8890000D01*
X13589000Y-8840000D01*
X13539000Y-8890000D01*
X13589000Y-8940000D01*
X13589000Y-9194000D02*
X13639000Y-9144000D01*
X13589000Y-9094000D01*
X13539000Y-9144000D01*
X13589000Y-9194000D01*
X13589000Y-9448000D02*
X13639000Y-9398000D01*
X13589000Y-9348000D01*
X13539000Y-9398000D01*
X13589000Y-9448000D01*
X13589000Y-9702000D02*
X13639000Y-9652000D01*
X13589000Y-9602000D01*
X13539000Y-9652000D01*
X13589000Y-9702000D01*
X13589000Y-9956000D02*
X13639000Y-9906000D01*
X13589000Y-9856000D01*
X13539000Y-9906000D01*
X13589000Y-9956000D01*
X13589000Y-10210000D02*
X13639000Y-10160000D01*
X13589000Y-10110000D01*
X13539000Y-10160000D01*
X13589000Y-10210000D01*
X13589000Y-10464000D02*
X13639000Y-10414000D01*
X13589000Y-10364000D01*
X13539000Y-10414000D01*
X13589000Y-10464000D01*
X13589000Y-10718000D02*
X13639000Y-10668000D01*
X13589000Y-10618000D01*
X13539000Y-10668000D01*
X13589000Y-10718000D01*
X13589000Y-10972000D02*
X13639000Y-10922000D01*
X13589000Y-10872000D01*
X13539000Y-10922000D01*
X13589000Y-10972000D01*
X13589000Y-11226000D02*
X13639000Y-11176000D01*
X13589000Y-11126000D01*
X13539000Y-11176000D01*
X13589000Y-11226000D01*
X13589000Y-11480000D02*
X13639000Y-11430000D01*
X13589000Y-11380000D01*
X13539000Y-11430000D01*
X13589000Y-11480000D01*
X13589000Y-11734000D02*
X13639000Y-11684000D01*
X13589000Y-11634000D01*
X13539000Y-11684000D01*
X13589000Y-11734000D01*
X13589000Y-11988000D02*
X13639000Y-11938000D01*
X13589000Y-11888000D01*
X13539000Y-11938000D01*
X13589000Y-11988000D01*
X13589000Y-12242000D02*
X13639000Y-12192000D01*
X13589000Y-12142000D01*
X13539000Y-12192000D01*
X13589000Y-12242000D01*
X13589000Y-12496000D02*
X13639000Y-12446000D01*
X13589000Y-12396000D01*
X13539000Y-12446000D01*
X13589000Y-12496000D01*
X13589000Y-12750000D02*
X13639000Y-12700000D01*
X13589000Y-12650000D01*
X13539000Y-12700000D01*
X13589000Y-12750000D01*
X13589000Y-13004000D02*
X13639000Y-12954000D01*
X13589000Y-12904000D01*
X13539000Y-12954000D01*
X13589000Y-13004000D01*
X13970000Y-8178000D02*
X14020000Y-8128000D01*
X13970000Y-8078000D01*
X13920000Y-8128000D01*
X13970000Y-8178000D01*
X13970000Y-8432000D02*
X14020000Y-8382000D01*
X13970000Y-8332000D01*
X13920000Y-8382000D01*
X13970000Y-8432000D01*
X13970000Y-8686000D02*
X14020000Y-8636000D01*
X13970000Y-8586000D01*
X13920000Y-8636000D01*
X13970000Y-8686000D01*
X13970000Y-8940000D02*
X14020000Y-8890000D01*
X13970000Y-8840000D01*
X13920000Y-8890000D01*
X13970000Y-8940000D01*
X13970000Y-9194000D02*
X14020000Y-9144000D01*
X13970000Y-9094000D01*
X13920000Y-9144000D01*
X13970000Y-9194000D01*
X13970000Y-9448000D02*
X14020000Y-9398000D01*
X13970000Y-9348000D01*
X13920000Y-9398000D01*
X13970000Y-9448000D01*
X13970000Y-9702000D02*
X14020000Y-9652000D01*
X13970000Y-9602000D01*
X13920000Y-9652000D01*
X13970000Y-9702000D01*
X13970000Y-9956000D02*
X14020000Y-9906000D01*
X13970000Y-9856000D01*
X13920000Y-9906000D01*
X13970000Y-9956000D01*
X13970000Y-10210000D02*
X14020000Y-10160000D01*
X13970000Y-10110000D01*
X13920000Y-10160000D01*
X13970000Y-10210000D01*
X13970000Y-10464000D02*
X14020000Y-10414000D01*
X13970000Y-10364000D01*
X13920000Y-10414000D01*
X13970000Y-10464000D01*
X13970000Y-10718000D02*
X14020000Y-10668000D01*
X13970000Y-10618000D01*
X13920000Y-10668000D01*
X13970000Y-10718000D01*
X13970000Y-10972000D02*
X14020000Y-10922000D01*
X13970000Y-10872000D01*
X13920000Y-10922000D01*
X13970000Y-10972000D01*
X13970000Y-11226000D02*
X14020000Y-11176000D01*
X13970000Y-11126000D01*
X13920000Y-11176000D01*
X13970000Y-11226000D01*
X13970000Y-11480000D02*
X14020000Y-11430000D01*
X13970000Y-11380000D01*
X13920000Y-11430000D01*
X13970000Y-11480000D01*
X13970000Y-11734000D02*
X14020000Y-11684000D01*
X13970000Y-11634000D01*
X13920000Y-11684000D01*
X13970000Y-11734000D01*
X13970000Y-11988000D02*
X14020000Y-11938000D01*
X13970000Y-11888000D01*
X13920000Y-11938000D01*
X13970000Y-11988000D01*
X13970000Y-12242000D02*
X14020000Y-12192000D01*
X13970000Y-12142000D01*
X13920000Y-12192000D01*
X13970000Y-12242000D01*
X13970000Y-12496000D02*
X14020000Y-12446000D01*
X13970000Y-12396000D01*
X13920000Y-12446000D01*
X13970000Y-12496000D01*
X13970000Y-12750000D02*
X14020000Y-12700000D01*
X13970000Y-12650000D01*
X13920000Y-12700000D01*
X13970000Y-12750000D01*
X13970000Y-13004000D02*
X14020000Y-12954000D01*
X13970000Y-12904000D01*
X13920000Y-12954000D01*
X13970000Y-13004000D01*
X15367000Y-14706750D02*
X15417000Y-14656750D01*
X15367000Y-14606750D01*
X15317000Y-14656750D01*
X15367000Y-14706750D01*
X15367000Y-14960750D02*
X15417000Y-14910750D01*
X15367000Y-14860750D01*
X15317000Y-14910750D01*
X15367000Y-14960750D01*
X15621000Y-14706750D02*
X15671000Y-14656750D01*
X15621000Y-14606750D01*
X15571000Y-14656750D01*
X15621000Y-14706750D01*
X15621000Y-14960750D02*
X15671000Y-14910750D01*
X15621000Y-14860750D01*
X15571000Y-14910750D01*
X15621000Y-14960750D01*
X15875000Y-14706750D02*
X15925000Y-14656750D01*
X15875000Y-14606750D01*
X15825000Y-14656750D01*
X15875000Y-14706750D01*
X15875000Y-14960750D02*
X15925000Y-14910750D01*
X15875000Y-14860750D01*
X15825000Y-14910750D01*
X15875000Y-14960750D01*
X16129000Y-14706750D02*
X16179000Y-14656750D01*
X16129000Y-14606750D01*
X16079000Y-14656750D01*
X16129000Y-14706750D01*
X16129000Y-14960750D02*
X16179000Y-14910750D01*
X16129000Y-14860750D01*
X16079000Y-14910750D01*
X16129000Y-14960750D01*
X16383000Y-14706750D02*
X16433000Y-14656750D01*
X16383000Y-14606750D01*
X16333000Y-14656750D01*
X16383000Y-14706750D01*
X16383000Y-14960750D02*
X16433000Y-14910750D01*
X16383000Y-14860750D01*
X16333000Y-14910750D01*
X16383000Y-14960750D01*
X17780000Y-8178500D02*
X17830000Y-8128500D01*
X17780000Y-8078500D01*
X17730000Y-8128500D01*
X17780000Y-8178500D01*
X17780000Y-8432500D02*
X17830000Y-8382500D01*
X17780000Y-8332500D01*
X17730000Y-8382500D01*
X17780000Y-8432500D01*
X17780000Y-8686500D02*
X17830000Y-8636500D01*
X17780000Y-8586500D01*
X17730000Y-8636500D01*
X17780000Y-8686500D01*
X17780000Y-8940500D02*
X17830000Y-8890500D01*
X17780000Y-8840500D01*
X17730000Y-8890500D01*
X17780000Y-8940500D01*
X17780000Y-9194500D02*
X17830000Y-9144500D01*
X17780000Y-9094500D01*
X17730000Y-9144500D01*
X17780000Y-9194500D01*
X17780000Y-9448500D02*
X17830000Y-9398500D01*
X17780000Y-9348500D01*
X17730000Y-9398500D01*
X17780000Y-9448500D01*
X17780000Y-9702500D02*
X17830000Y-9652500D01*
X17780000Y-9602500D01*
X17730000Y-9652500D01*
X17780000Y-9702500D01*
X17780000Y-9956500D02*
X17830000Y-9906500D01*
X17780000Y-9856500D01*
X17730000Y-9906500D01*
X17780000Y-9956500D01*
X17780000Y-10210500D02*
X17830000Y-10160500D01*
X17780000Y-10110500D01*
X17730000Y-10160500D01*
X17780000Y-10210500D01*
X17780000Y-10464500D02*
X17830000Y-10414500D01*
X17780000Y-10364500D01*
X17730000Y-10414500D01*
X17780000Y-10464500D01*
X17780000Y-10718500D02*
X17830000Y-10668500D01*
X17780000Y-10618500D01*
X17730000Y-10668500D01*
X17780000Y-10718500D01*
X17780000Y-10972500D02*
X17830000Y-10922500D01*
X17780000Y-10872500D01*
X17730000Y-10922500D01*
X17780000Y-10972500D01*
X17780000Y-11226500D02*
X17830000Y-11176500D01*
X17780000Y-11126500D01*
X17730000Y-11176500D01*
X17780000Y-11226500D01*
X17780000Y-11480500D02*
X17830000Y-11430500D01*
X17780000Y-11380500D01*
X17730000Y-11430500D01*
X17780000Y-11480500D01*
X17780000Y-11734500D02*
X17830000Y-11684500D01*
X17780000Y-11634500D01*
X17730000Y-11684500D01*
X17780000Y-11734500D01*
X17780000Y-11988500D02*
X17830000Y-11938500D01*
X17780000Y-11888500D01*
X17730000Y-11938500D01*
X17780000Y-11988500D01*
X17780000Y-12242500D02*
X17830000Y-12192500D01*
X17780000Y-12142500D01*
X17730000Y-12192500D01*
X17780000Y-12242500D01*
X17780000Y-12496500D02*
X17830000Y-12446500D01*
X17780000Y-12396500D01*
X17730000Y-12446500D01*
X17780000Y-12496500D01*
X17780000Y-12750500D02*
X17830000Y-12700500D01*
X17780000Y-12650500D01*
X17730000Y-12700500D01*
X17780000Y-12750500D01*
X17780000Y-13004500D02*
X17830000Y-12954500D01*
X17780000Y-12904500D01*
X17730000Y-12954500D01*
X17780000Y-13004500D01*
X18161000Y-8178500D02*
X18211000Y-8128500D01*
X18161000Y-8078500D01*
X18111000Y-8128500D01*
X18161000Y-8178500D01*
X18161000Y-8432500D02*
X18211000Y-8382500D01*
X18161000Y-8332500D01*
X18111000Y-8382500D01*
X18161000Y-8432500D01*
X18161000Y-8686500D02*
X18211000Y-8636500D01*
X18161000Y-8586500D01*
X18111000Y-8636500D01*
X18161000Y-8686500D01*
X18161000Y-8940500D02*
X18211000Y-8890500D01*
X18161000Y-8840500D01*
X18111000Y-8890500D01*
X18161000Y-8940500D01*
X18161000Y-9194500D02*
X18211000Y-9144500D01*
X18161000Y-9094500D01*
X18111000Y-9144500D01*
X18161000Y-9194500D01*
X18161000Y-9448500D02*
X18211000Y-9398500D01*
X18161000Y-9348500D01*
X18111000Y-9398500D01*
X18161000Y-9448500D01*
X18161000Y-9702500D02*
X18211000Y-9652500D01*
X18161000Y-9602500D01*
X18111000Y-9652500D01*
X18161000Y-9702500D01*
X18161000Y-9956500D02*
X18211000Y-9906500D01*
X18161000Y-9856500D01*
X18111000Y-9906500D01*
X18161000Y-9956500D01*
X18161000Y-10210500D02*
X18211000Y-10160500D01*
X18161000Y-10110500D01*
X18111000Y-10160500D01*
X18161000Y-10210500D01*
X18161000Y-10464500D02*
X18211000Y-10414500D01*
X18161000Y-10364500D01*
X18111000Y-10414500D01*
X18161000Y-10464500D01*
X18161000Y-10718500D02*
X18211000Y-10668500D01*
X18161000Y-10618500D01*
X18111000Y-10668500D01*
X18161000Y-10718500D01*
X18161000Y-10972500D02*
X18211000Y-10922500D01*
X18161000Y-10872500D01*
X18111000Y-10922500D01*
X18161000Y-10972500D01*
X18161000Y-11226500D02*
X18211000Y-11176500D01*
X18161000Y-11126500D01*
X18111000Y-11176500D01*
X18161000Y-11226500D01*
X18161000Y-11480500D02*
X18211000Y-11430500D01*
X18161000Y-11380500D01*
X18111000Y-11430500D01*
X18161000Y-11480500D01*
X18161000Y-11734500D02*
X18211000Y-11684500D01*
X18161000Y-11634500D01*
X18111000Y-11684500D01*
X18161000Y-11734500D01*
X18161000Y-11988500D02*
X18211000Y-11938500D01*
X18161000Y-11888500D01*
X18111000Y-11938500D01*
X18161000Y-11988500D01*
X18161000Y-12242500D02*
X18211000Y-12192500D01*
X18161000Y-12142500D01*
X18111000Y-12192500D01*
X18161000Y-12242500D01*
X18161000Y-12496500D02*
X18211000Y-12446500D01*
X18161000Y-12396500D01*
X18111000Y-12446500D01*
X18161000Y-12496500D01*
X18161000Y-12750500D02*
X18211000Y-12700500D01*
X18161000Y-12650500D01*
X18111000Y-12700500D01*
X18161000Y-12750500D01*
X18161000Y-13004500D02*
X18211000Y-12954500D01*
X18161000Y-12904500D01*
X18111000Y-12954500D01*
X18161000Y-13004500D01*
X18542000Y-8178500D02*
X18592000Y-8128500D01*
X18542000Y-8078500D01*
X18492000Y-8128500D01*
X18542000Y-8178500D01*
X18542000Y-8432500D02*
X18592000Y-8382500D01*
X18542000Y-8332500D01*
X18492000Y-8382500D01*
X18542000Y-8432500D01*
X18542000Y-8686500D02*
X18592000Y-8636500D01*
X18542000Y-8586500D01*
X18492000Y-8636500D01*
X18542000Y-8686500D01*
X18542000Y-8940500D02*
X18592000Y-8890500D01*
X18542000Y-8840500D01*
X18492000Y-8890500D01*
X18542000Y-8940500D01*
X18542000Y-9194500D02*
X18592000Y-9144500D01*
X18542000Y-9094500D01*
X18492000Y-9144500D01*
X18542000Y-9194500D01*
X18542000Y-9448500D02*
X18592000Y-9398500D01*
X18542000Y-9348500D01*
X18492000Y-9398500D01*
X18542000Y-9448500D01*
X18542000Y-9702500D02*
X18592000Y-9652500D01*
X18542000Y-9602500D01*
X18492000Y-9652500D01*
X18542000Y-9702500D01*
X18542000Y-9956500D02*
X18592000Y-9906500D01*
X18542000Y-9856500D01*
X18492000Y-9906500D01*
X18542000Y-9956500D01*
X18542000Y-10210500D02*
X18592000Y-10160500D01*
X18542000Y-10110500D01*
X18492000Y-10160500D01*
X18542000Y-10210500D01*
X18542000Y-10464500D02*
X18592000Y-10414500D01*
X18542000Y-10364500D01*
X18492000Y-10414500D01*
X18542000Y-10464500D01*
X18542000Y-10718500D02*
X18592000Y-10668500D01*
X18542000Y-10618500D01*
X18492000Y-10668500D01*
X18542000Y-10718500D01*
X18542000Y-10972500D02*
X18592000Y-10922500D01*
X18542000Y-10872500D01*
X18492000Y-10922500D01*
X18542000Y-10972500D01*
X18542000Y-11226500D02*
X18592000Y-11176500D01*
X18542000Y-11126500D01*
X18492000Y-11176500D01*
X18542000Y-11226500D01*
X18542000Y-11480500D02*
X18592000Y-11430500D01*
X18542000Y-11380500D01*
X18492000Y-11430500D01*
X18542000Y-11480500D01*
X18542000Y-11734500D02*
X18592000Y-11684500D01*
X18542000Y-11634500D01*
X18492000Y-11684500D01*
X18542000Y-11734500D01*
X18542000Y-11988500D02*
X18592000Y-11938500D01*
X18542000Y-11888500D01*
X18492000Y-11938500D01*
X18542000Y-11988500D01*
X18542000Y-12242500D02*
X18592000Y-12192500D01*
X18542000Y-12142500D01*
X18492000Y-12192500D01*
X18542000Y-12242500D01*
X18542000Y-12496500D02*
X18592000Y-12446500D01*
X18542000Y-12396500D01*
X18492000Y-12446500D01*
X18542000Y-12496500D01*
X18542000Y-12750500D02*
X18592000Y-12700500D01*
X18542000Y-12650500D01*
X18492000Y-12700500D01*
X18542000Y-12750500D01*
X18542000Y-13004500D02*
X18592000Y-12954500D01*
X18542000Y-12904500D01*
X18492000Y-12954500D01*
X18542000Y-13004500D01*
D16*
X17590500Y-14325000D02*
X17700500Y-14435000D01*
X17700500Y-14325000D02*
X17590500Y-14435000D01*
X17700500Y-14380000D02*
G75*
G03*
X17700500Y-14380000I-55000J0D01*
G01*
X17590500Y-14775000D02*
X17700500Y-14885000D01*
X17700500Y-14775000D02*
X17590500Y-14885000D01*
X17700500Y-14830000D02*
G75*
G03*
X17700500Y-14830000I-55000J0D01*
G01*
X18240500Y-14325000D02*
X18350500Y-14435000D01*
X18350500Y-14325000D02*
X18240500Y-14435000D01*
X18350500Y-14380000D02*
G75*
G03*
X18350500Y-14380000I-55000J0D01*
G01*
X18240500Y-14775000D02*
X18350500Y-14885000D01*
X18350500Y-14775000D02*
X18240500Y-14885000D01*
X18350500Y-14830000D02*
G75*
G03*
X18350500Y-14830000I-55000J0D01*
G01*
D17*
X17315500Y-6801250D02*
X17548500Y-7034250D01*
X17548500Y-6801250D02*
X17315500Y-7034250D01*
X17432000Y-6801250D02*
X17432000Y-7034250D01*
X17315500Y-6917750D02*
X17548500Y-6917750D01*
X18519500Y-6801250D02*
X18752500Y-7034250D01*
X18752500Y-6801250D02*
X18519500Y-7034250D01*
X18636000Y-6801250D02*
X18636000Y-7034250D01*
X18519500Y-6917750D02*
X18752500Y-6917750D01*
D11*
X13143119Y-15618976D02*
X13143119Y-15418976D01*
X13190738Y-15418976D01*
X13219309Y-15428500D01*
X13238357Y-15447548D01*
X13247881Y-15466595D01*
X13257405Y-15504690D01*
X13257405Y-15533262D01*
X13247881Y-15571357D01*
X13238357Y-15590405D01*
X13219309Y-15609452D01*
X13190738Y-15618976D01*
X13143119Y-15618976D01*
X13343119Y-15618976D02*
X13343119Y-15485643D01*
X13343119Y-15523738D02*
X13352643Y-15504690D01*
X13362167Y-15495167D01*
X13381214Y-15485643D01*
X13400262Y-15485643D01*
X13466928Y-15618976D02*
X13466928Y-15485643D01*
X13466928Y-15418976D02*
X13457405Y-15428500D01*
X13466928Y-15438024D01*
X13476452Y-15428500D01*
X13466928Y-15418976D01*
X13466928Y-15438024D01*
X13590738Y-15618976D02*
X13571690Y-15609452D01*
X13562167Y-15590405D01*
X13562167Y-15418976D01*
X13695500Y-15618976D02*
X13676452Y-15609452D01*
X13666928Y-15590405D01*
X13666928Y-15418976D01*
X13924071Y-15618976D02*
X13924071Y-15418976D01*
X13990738Y-15561833D01*
X14057405Y-15418976D01*
X14057405Y-15618976D01*
X14238357Y-15618976D02*
X14238357Y-15514214D01*
X14228833Y-15495167D01*
X14209786Y-15485643D01*
X14171690Y-15485643D01*
X14152643Y-15495167D01*
X14238357Y-15609452D02*
X14219309Y-15618976D01*
X14171690Y-15618976D01*
X14152643Y-15609452D01*
X14143119Y-15590405D01*
X14143119Y-15571357D01*
X14152643Y-15552309D01*
X14171690Y-15542786D01*
X14219309Y-15542786D01*
X14238357Y-15533262D01*
X14333595Y-15485643D02*
X14333595Y-15685643D01*
X14333595Y-15495167D02*
X14352643Y-15485643D01*
X14390738Y-15485643D01*
X14409786Y-15495167D01*
X14419309Y-15504690D01*
X14428833Y-15523738D01*
X14428833Y-15580881D01*
X14419309Y-15599928D01*
X14409786Y-15609452D01*
X14390738Y-15618976D01*
X14352643Y-15618976D01*
X14333595Y-15609452D01*
X14514548Y-15599928D02*
X14524071Y-15609452D01*
X14514548Y-15618976D01*
X14505024Y-15609452D01*
X14514548Y-15599928D01*
X14514548Y-15618976D01*
X14514548Y-15495167D02*
X14524071Y-15504690D01*
X14514548Y-15514214D01*
X14505024Y-15504690D01*
X14514548Y-15495167D01*
X14514548Y-15514214D01*
D12*
X12845500Y-15928500D02*
X12885500Y-15968500D01*
X12885500Y-15928500D02*
X12845500Y-15968500D01*
D11*
X13181214Y-15838976D02*
X13200262Y-15838976D01*
X13219309Y-15848500D01*
X13228833Y-15858024D01*
X13238357Y-15877071D01*
X13247881Y-15915167D01*
X13247881Y-15962786D01*
X13238357Y-16000881D01*
X13228833Y-16019928D01*
X13219309Y-16029452D01*
X13200262Y-16038976D01*
X13181214Y-16038976D01*
X13162167Y-16029452D01*
X13152643Y-16019928D01*
X13143119Y-16000881D01*
X13133595Y-15962786D01*
X13133595Y-15915167D01*
X13143119Y-15877071D01*
X13152643Y-15858024D01*
X13162167Y-15848500D01*
X13181214Y-15838976D01*
X13333595Y-16019928D02*
X13343119Y-16029452D01*
X13333595Y-16038976D01*
X13324071Y-16029452D01*
X13333595Y-16019928D01*
X13333595Y-16038976D01*
X13514548Y-15905643D02*
X13514548Y-16038976D01*
X13466928Y-15829452D02*
X13419309Y-15972309D01*
X13543119Y-15972309D01*
X13657405Y-15838976D02*
X13676452Y-15838976D01*
X13695500Y-15848500D01*
X13705024Y-15858024D01*
X13714548Y-15877071D01*
X13724071Y-15915167D01*
X13724071Y-15962786D01*
X13714548Y-16000881D01*
X13705024Y-16019928D01*
X13695500Y-16029452D01*
X13676452Y-16038976D01*
X13657405Y-16038976D01*
X13638357Y-16029452D01*
X13628833Y-16019928D01*
X13619309Y-16000881D01*
X13609786Y-15962786D01*
X13609786Y-15915167D01*
X13619309Y-15877071D01*
X13628833Y-15858024D01*
X13638357Y-15848500D01*
X13657405Y-15838976D01*
X13847881Y-15838976D02*
X13866928Y-15838976D01*
X13885976Y-15848500D01*
X13895500Y-15858024D01*
X13905024Y-15877071D01*
X13914548Y-15915167D01*
X13914548Y-15962786D01*
X13905024Y-16000881D01*
X13895500Y-16019928D01*
X13885976Y-16029452D01*
X13866928Y-16038976D01*
X13847881Y-16038976D01*
X13828833Y-16029452D01*
X13819309Y-16019928D01*
X13809786Y-16000881D01*
X13800262Y-15962786D01*
X13800262Y-15915167D01*
X13809786Y-15877071D01*
X13819309Y-15858024D01*
X13828833Y-15848500D01*
X13847881Y-15838976D01*
X14000262Y-16038976D02*
X14000262Y-15905643D01*
X14000262Y-15924690D02*
X14009786Y-15915167D01*
X14028833Y-15905643D01*
X14057405Y-15905643D01*
X14076452Y-15915167D01*
X14085976Y-15934214D01*
X14085976Y-16038976D01*
X14085976Y-15934214D02*
X14095500Y-15915167D01*
X14114548Y-15905643D01*
X14143119Y-15905643D01*
X14162167Y-15915167D01*
X14171690Y-15934214D01*
X14171690Y-16038976D01*
X14266928Y-16038976D02*
X14266928Y-15905643D01*
X14266928Y-15924690D02*
X14276452Y-15915167D01*
X14295500Y-15905643D01*
X14324071Y-15905643D01*
X14343119Y-15915167D01*
X14352643Y-15934214D01*
X14352643Y-16038976D01*
X14352643Y-15934214D02*
X14362167Y-15915167D01*
X14381214Y-15905643D01*
X14409786Y-15905643D01*
X14428833Y-15915167D01*
X14438357Y-15934214D01*
X14438357Y-16038976D01*
X14828833Y-15829452D02*
X14657405Y-16086595D01*
X15085976Y-15838976D02*
X15105024Y-15838976D01*
X15124071Y-15848500D01*
X15133595Y-15858024D01*
X15143119Y-15877071D01*
X15152643Y-15915167D01*
X15152643Y-15962786D01*
X15143119Y-16000881D01*
X15133595Y-16019928D01*
X15124071Y-16029452D01*
X15105024Y-16038976D01*
X15085976Y-16038976D01*
X15066928Y-16029452D01*
X15057405Y-16019928D01*
X15047881Y-16000881D01*
X15038357Y-15962786D01*
X15038357Y-15915167D01*
X15047881Y-15877071D01*
X15057405Y-15858024D01*
X15066928Y-15848500D01*
X15085976Y-15838976D01*
X15238357Y-16019928D02*
X15247881Y-16029452D01*
X15238357Y-16038976D01*
X15228833Y-16029452D01*
X15238357Y-16019928D01*
X15238357Y-16038976D01*
X15371690Y-15838976D02*
X15390738Y-15838976D01*
X15409786Y-15848500D01*
X15419309Y-15858024D01*
X15428833Y-15877071D01*
X15438357Y-15915167D01*
X15438357Y-15962786D01*
X15428833Y-16000881D01*
X15419309Y-16019928D01*
X15409786Y-16029452D01*
X15390738Y-16038976D01*
X15371690Y-16038976D01*
X15352643Y-16029452D01*
X15343119Y-16019928D01*
X15333595Y-16000881D01*
X15324071Y-15962786D01*
X15324071Y-15915167D01*
X15333595Y-15877071D01*
X15343119Y-15858024D01*
X15352643Y-15848500D01*
X15371690Y-15838976D01*
X15628833Y-16038976D02*
X15514548Y-16038976D01*
X15571690Y-16038976D02*
X15571690Y-15838976D01*
X15552643Y-15867548D01*
X15533595Y-15886595D01*
X15514548Y-15896119D01*
X15809786Y-15838976D02*
X15714548Y-15838976D01*
X15705024Y-15934214D01*
X15714548Y-15924690D01*
X15733595Y-15915167D01*
X15781214Y-15915167D01*
X15800262Y-15924690D01*
X15809786Y-15934214D01*
X15819309Y-15953262D01*
X15819309Y-16000881D01*
X15809786Y-16019928D01*
X15800262Y-16029452D01*
X15781214Y-16038976D01*
X15733595Y-16038976D01*
X15714548Y-16029452D01*
X15705024Y-16019928D01*
X15885976Y-15838976D02*
X16019309Y-15838976D01*
X15933595Y-16038976D01*
X16085976Y-15838976D02*
X16085976Y-15877071D01*
X16162167Y-15838976D02*
X16162167Y-15877071D01*
X16457405Y-16115167D02*
X16447881Y-16105643D01*
X16428833Y-16077071D01*
X16419309Y-16058024D01*
X16409786Y-16029452D01*
X16400262Y-15981833D01*
X16400262Y-15943738D01*
X16409786Y-15896119D01*
X16419309Y-15867548D01*
X16428833Y-15848500D01*
X16447881Y-15819928D01*
X16457405Y-15810405D01*
X16562167Y-15924690D02*
X16543119Y-15915167D01*
X16533595Y-15905643D01*
X16524071Y-15886595D01*
X16524071Y-15877071D01*
X16533595Y-15858024D01*
X16543119Y-15848500D01*
X16562167Y-15838976D01*
X16600262Y-15838976D01*
X16619309Y-15848500D01*
X16628833Y-15858024D01*
X16638357Y-15877071D01*
X16638357Y-15886595D01*
X16628833Y-15905643D01*
X16619309Y-15915167D01*
X16600262Y-15924690D01*
X16562167Y-15924690D01*
X16543119Y-15934214D01*
X16533595Y-15943738D01*
X16524071Y-15962786D01*
X16524071Y-16000881D01*
X16533595Y-16019928D01*
X16543119Y-16029452D01*
X16562167Y-16038976D01*
X16600262Y-16038976D01*
X16619309Y-16029452D01*
X16628833Y-16019928D01*
X16638357Y-16000881D01*
X16638357Y-15962786D01*
X16628833Y-15943738D01*
X16619309Y-15934214D01*
X16600262Y-15924690D01*
X16876452Y-16038976D02*
X16876452Y-15838976D01*
X16962167Y-16038976D02*
X16962167Y-15934214D01*
X16952643Y-15915167D01*
X16933595Y-15905643D01*
X16905024Y-15905643D01*
X16885976Y-15915167D01*
X16876452Y-15924690D01*
X17085976Y-16038976D02*
X17066929Y-16029452D01*
X17057405Y-16019928D01*
X17047881Y-16000881D01*
X17047881Y-15943738D01*
X17057405Y-15924690D01*
X17066929Y-15915167D01*
X17085976Y-15905643D01*
X17114548Y-15905643D01*
X17133595Y-15915167D01*
X17143119Y-15924690D01*
X17152643Y-15943738D01*
X17152643Y-16000881D01*
X17143119Y-16019928D01*
X17133595Y-16029452D01*
X17114548Y-16038976D01*
X17085976Y-16038976D01*
X17266929Y-16038976D02*
X17247881Y-16029452D01*
X17238357Y-16010405D01*
X17238357Y-15838976D01*
X17419310Y-16029452D02*
X17400262Y-16038976D01*
X17362167Y-16038976D01*
X17343119Y-16029452D01*
X17333595Y-16010405D01*
X17333595Y-15934214D01*
X17343119Y-15915167D01*
X17362167Y-15905643D01*
X17400262Y-15905643D01*
X17419310Y-15915167D01*
X17428833Y-15934214D01*
X17428833Y-15953262D01*
X17333595Y-15972309D01*
X17505024Y-16029452D02*
X17524071Y-16038976D01*
X17562167Y-16038976D01*
X17581214Y-16029452D01*
X17590738Y-16010405D01*
X17590738Y-16000881D01*
X17581214Y-15981833D01*
X17562167Y-15972309D01*
X17533595Y-15972309D01*
X17514548Y-15962786D01*
X17505024Y-15943738D01*
X17505024Y-15934214D01*
X17514548Y-15915167D01*
X17533595Y-15905643D01*
X17562167Y-15905643D01*
X17581214Y-15915167D01*
X17657405Y-16115167D02*
X17666929Y-16105643D01*
X17685976Y-16077071D01*
X17695500Y-16058024D01*
X17705024Y-16029452D01*
X17714548Y-15981833D01*
X17714548Y-15943738D01*
X17705024Y-15896119D01*
X17695500Y-15867548D01*
X17685976Y-15848500D01*
X17666929Y-15819928D01*
X17657405Y-15810405D01*
D13*
X12885500Y-16212500D02*
G75*
G03*
X12885500Y-16212500I-37950J0D01*
G01*
D11*
X13181214Y-16102976D02*
X13200262Y-16102976D01*
X13219309Y-16112500D01*
X13228833Y-16122024D01*
X13238357Y-16141071D01*
X13247881Y-16179167D01*
X13247881Y-16226786D01*
X13238357Y-16264881D01*
X13228833Y-16283928D01*
X13219309Y-16293452D01*
X13200262Y-16302976D01*
X13181214Y-16302976D01*
X13162167Y-16293452D01*
X13152643Y-16283928D01*
X13143119Y-16264881D01*
X13133595Y-16226786D01*
X13133595Y-16179167D01*
X13143119Y-16141071D01*
X13152643Y-16122024D01*
X13162167Y-16112500D01*
X13181214Y-16102976D01*
X13333595Y-16283928D02*
X13343119Y-16293452D01*
X13333595Y-16302976D01*
X13324071Y-16293452D01*
X13333595Y-16283928D01*
X13333595Y-16302976D01*
X13409786Y-16102976D02*
X13543119Y-16102976D01*
X13457405Y-16302976D01*
X13714548Y-16102976D02*
X13619309Y-16102976D01*
X13609786Y-16198214D01*
X13619309Y-16188690D01*
X13638357Y-16179167D01*
X13685976Y-16179167D01*
X13705024Y-16188690D01*
X13714548Y-16198214D01*
X13724071Y-16217262D01*
X13724071Y-16264881D01*
X13714548Y-16283928D01*
X13705024Y-16293452D01*
X13685976Y-16302976D01*
X13638357Y-16302976D01*
X13619309Y-16293452D01*
X13609786Y-16283928D01*
X13819309Y-16302976D02*
X13857405Y-16302976D01*
X13876452Y-16293452D01*
X13885976Y-16283928D01*
X13905024Y-16255357D01*
X13914548Y-16217262D01*
X13914548Y-16141071D01*
X13905024Y-16122024D01*
X13895500Y-16112500D01*
X13876452Y-16102976D01*
X13838357Y-16102976D01*
X13819309Y-16112500D01*
X13809786Y-16122024D01*
X13800262Y-16141071D01*
X13800262Y-16188690D01*
X13809786Y-16207738D01*
X13819309Y-16217262D01*
X13838357Y-16226786D01*
X13876452Y-16226786D01*
X13895500Y-16217262D01*
X13905024Y-16207738D01*
X13914548Y-16188690D01*
X14000262Y-16302976D02*
X14000262Y-16169643D01*
X14000262Y-16188690D02*
X14009786Y-16179167D01*
X14028833Y-16169643D01*
X14057405Y-16169643D01*
X14076452Y-16179167D01*
X14085976Y-16198214D01*
X14085976Y-16302976D01*
X14085976Y-16198214D02*
X14095500Y-16179167D01*
X14114548Y-16169643D01*
X14143119Y-16169643D01*
X14162167Y-16179167D01*
X14171690Y-16198214D01*
X14171690Y-16302976D01*
X14266928Y-16302976D02*
X14266928Y-16169643D01*
X14266928Y-16188690D02*
X14276452Y-16179167D01*
X14295500Y-16169643D01*
X14324071Y-16169643D01*
X14343119Y-16179167D01*
X14352643Y-16198214D01*
X14352643Y-16302976D01*
X14352643Y-16198214D02*
X14362167Y-16179167D01*
X14381214Y-16169643D01*
X14409786Y-16169643D01*
X14428833Y-16179167D01*
X14438357Y-16198214D01*
X14438357Y-16302976D01*
X14828833Y-16093452D02*
X14657405Y-16350595D01*
X15085976Y-16102976D02*
X15105024Y-16102976D01*
X15124071Y-16112500D01*
X15133595Y-16122024D01*
X15143119Y-16141071D01*
X15152643Y-16179167D01*
X15152643Y-16226786D01*
X15143119Y-16264881D01*
X15133595Y-16283928D01*
X15124071Y-16293452D01*
X15105024Y-16302976D01*
X15085976Y-16302976D01*
X15066928Y-16293452D01*
X15057405Y-16283928D01*
X15047881Y-16264881D01*
X15038357Y-16226786D01*
X15038357Y-16179167D01*
X15047881Y-16141071D01*
X15057405Y-16122024D01*
X15066928Y-16112500D01*
X15085976Y-16102976D01*
X15238357Y-16283928D02*
X15247881Y-16293452D01*
X15238357Y-16302976D01*
X15228833Y-16293452D01*
X15238357Y-16283928D01*
X15238357Y-16302976D01*
X15371690Y-16102976D02*
X15390738Y-16102976D01*
X15409786Y-16112500D01*
X15419309Y-16122024D01*
X15428833Y-16141071D01*
X15438357Y-16179167D01*
X15438357Y-16226786D01*
X15428833Y-16264881D01*
X15419309Y-16283928D01*
X15409786Y-16293452D01*
X15390738Y-16302976D01*
X15371690Y-16302976D01*
X15352643Y-16293452D01*
X15343119Y-16283928D01*
X15333595Y-16264881D01*
X15324071Y-16226786D01*
X15324071Y-16179167D01*
X15333595Y-16141071D01*
X15343119Y-16122024D01*
X15352643Y-16112500D01*
X15371690Y-16102976D01*
X15514548Y-16122024D02*
X15524071Y-16112500D01*
X15543119Y-16102976D01*
X15590738Y-16102976D01*
X15609786Y-16112500D01*
X15619309Y-16122024D01*
X15628833Y-16141071D01*
X15628833Y-16160119D01*
X15619309Y-16188690D01*
X15505024Y-16302976D01*
X15628833Y-16302976D01*
X15724071Y-16302976D02*
X15762167Y-16302976D01*
X15781214Y-16293452D01*
X15790738Y-16283928D01*
X15809786Y-16255357D01*
X15819309Y-16217262D01*
X15819309Y-16141071D01*
X15809786Y-16122024D01*
X15800262Y-16112500D01*
X15781214Y-16102976D01*
X15743119Y-16102976D01*
X15724071Y-16112500D01*
X15714548Y-16122024D01*
X15705024Y-16141071D01*
X15705024Y-16188690D01*
X15714548Y-16207738D01*
X15724071Y-16217262D01*
X15743119Y-16226786D01*
X15781214Y-16226786D01*
X15800262Y-16217262D01*
X15809786Y-16207738D01*
X15819309Y-16188690D01*
X15914548Y-16302976D02*
X15952643Y-16302976D01*
X15971690Y-16293452D01*
X15981214Y-16283928D01*
X16000262Y-16255357D01*
X16009786Y-16217262D01*
X16009786Y-16141071D01*
X16000262Y-16122024D01*
X15990738Y-16112500D01*
X15971690Y-16102976D01*
X15933595Y-16102976D01*
X15914548Y-16112500D01*
X15905024Y-16122024D01*
X15895500Y-16141071D01*
X15895500Y-16188690D01*
X15905024Y-16207738D01*
X15914548Y-16217262D01*
X15933595Y-16226786D01*
X15971690Y-16226786D01*
X15990738Y-16217262D01*
X16000262Y-16207738D01*
X16009786Y-16188690D01*
X16085976Y-16102976D02*
X16085976Y-16141071D01*
X16162167Y-16102976D02*
X16162167Y-16141071D01*
X16457405Y-16379167D02*
X16447881Y-16369643D01*
X16428833Y-16341071D01*
X16419309Y-16322024D01*
X16409786Y-16293452D01*
X16400262Y-16245833D01*
X16400262Y-16207738D01*
X16409786Y-16160119D01*
X16419309Y-16131548D01*
X16428833Y-16112500D01*
X16447881Y-16083928D01*
X16457405Y-16074405D01*
X16619309Y-16169643D02*
X16619309Y-16302976D01*
X16571690Y-16093452D02*
X16524071Y-16236309D01*
X16647881Y-16236309D01*
X16762167Y-16102976D02*
X16781214Y-16102976D01*
X16800262Y-16112500D01*
X16809786Y-16122024D01*
X16819310Y-16141071D01*
X16828833Y-16179167D01*
X16828833Y-16226786D01*
X16819310Y-16264881D01*
X16809786Y-16283928D01*
X16800262Y-16293452D01*
X16781214Y-16302976D01*
X16762167Y-16302976D01*
X16743119Y-16293452D01*
X16733595Y-16283928D01*
X16724071Y-16264881D01*
X16714548Y-16226786D01*
X16714548Y-16179167D01*
X16724071Y-16141071D01*
X16733595Y-16122024D01*
X16743119Y-16112500D01*
X16762167Y-16102976D01*
X17066929Y-16302976D02*
X17066929Y-16102976D01*
X17152643Y-16302976D02*
X17152643Y-16198214D01*
X17143119Y-16179167D01*
X17124071Y-16169643D01*
X17095500Y-16169643D01*
X17076452Y-16179167D01*
X17066929Y-16188690D01*
X17276452Y-16302976D02*
X17257405Y-16293452D01*
X17247881Y-16283928D01*
X17238357Y-16264881D01*
X17238357Y-16207738D01*
X17247881Y-16188690D01*
X17257405Y-16179167D01*
X17276452Y-16169643D01*
X17305024Y-16169643D01*
X17324071Y-16179167D01*
X17333595Y-16188690D01*
X17343119Y-16207738D01*
X17343119Y-16264881D01*
X17333595Y-16283928D01*
X17324071Y-16293452D01*
X17305024Y-16302976D01*
X17276452Y-16302976D01*
X17457405Y-16302976D02*
X17438357Y-16293452D01*
X17428833Y-16274405D01*
X17428833Y-16102976D01*
X17609786Y-16293452D02*
X17590738Y-16302976D01*
X17552643Y-16302976D01*
X17533595Y-16293452D01*
X17524071Y-16274405D01*
X17524071Y-16198214D01*
X17533595Y-16179167D01*
X17552643Y-16169643D01*
X17590738Y-16169643D01*
X17609786Y-16179167D01*
X17619310Y-16198214D01*
X17619310Y-16217262D01*
X17524071Y-16236309D01*
X17695500Y-16293452D02*
X17714548Y-16302976D01*
X17752643Y-16302976D01*
X17771690Y-16293452D01*
X17781214Y-16274405D01*
X17781214Y-16264881D01*
X17771690Y-16245833D01*
X17752643Y-16236309D01*
X17724071Y-16236309D01*
X17705024Y-16226786D01*
X17695500Y-16207738D01*
X17695500Y-16198214D01*
X17705024Y-16179167D01*
X17724071Y-16169643D01*
X17752643Y-16169643D01*
X17771690Y-16179167D01*
X17847881Y-16379167D02*
X17857405Y-16369643D01*
X17876452Y-16341071D01*
X17885976Y-16322024D01*
X17895500Y-16293452D01*
X17905024Y-16245833D01*
X17905024Y-16207738D01*
X17895500Y-16160119D01*
X17885976Y-16131548D01*
X17876452Y-16112500D01*
X17857405Y-16083928D01*
X17847881Y-16074405D01*
D14*
X12845500Y-16436500D02*
X12845500Y-16516500D01*
X12805500Y-16476500D02*
X12885500Y-16476500D01*
D11*
X13181214Y-16366976D02*
X13200262Y-16366976D01*
X13219309Y-16376500D01*
X13228833Y-16386024D01*
X13238357Y-16405071D01*
X13247881Y-16443167D01*
X13247881Y-16490786D01*
X13238357Y-16528881D01*
X13228833Y-16547928D01*
X13219309Y-16557452D01*
X13200262Y-16566976D01*
X13181214Y-16566976D01*
X13162167Y-16557452D01*
X13152643Y-16547928D01*
X13143119Y-16528881D01*
X13133595Y-16490786D01*
X13133595Y-16443167D01*
X13143119Y-16405071D01*
X13152643Y-16386024D01*
X13162167Y-16376500D01*
X13181214Y-16366976D01*
X13333595Y-16547928D02*
X13343119Y-16557452D01*
X13333595Y-16566976D01*
X13324071Y-16557452D01*
X13333595Y-16547928D01*
X13333595Y-16566976D01*
X13457405Y-16452690D02*
X13438357Y-16443167D01*
X13428833Y-16433643D01*
X13419309Y-16414595D01*
X13419309Y-16405071D01*
X13428833Y-16386024D01*
X13438357Y-16376500D01*
X13457405Y-16366976D01*
X13495500Y-16366976D01*
X13514548Y-16376500D01*
X13524071Y-16386024D01*
X13533595Y-16405071D01*
X13533595Y-16414595D01*
X13524071Y-16433643D01*
X13514548Y-16443167D01*
X13495500Y-16452690D01*
X13457405Y-16452690D01*
X13438357Y-16462214D01*
X13428833Y-16471738D01*
X13419309Y-16490786D01*
X13419309Y-16528881D01*
X13428833Y-16547928D01*
X13438357Y-16557452D01*
X13457405Y-16566976D01*
X13495500Y-16566976D01*
X13514548Y-16557452D01*
X13524071Y-16547928D01*
X13533595Y-16528881D01*
X13533595Y-16490786D01*
X13524071Y-16471738D01*
X13514548Y-16462214D01*
X13495500Y-16452690D01*
X13657405Y-16366976D02*
X13676452Y-16366976D01*
X13695500Y-16376500D01*
X13705024Y-16386024D01*
X13714548Y-16405071D01*
X13724071Y-16443167D01*
X13724071Y-16490786D01*
X13714548Y-16528881D01*
X13705024Y-16547928D01*
X13695500Y-16557452D01*
X13676452Y-16566976D01*
X13657405Y-16566976D01*
X13638357Y-16557452D01*
X13628833Y-16547928D01*
X13619309Y-16528881D01*
X13609786Y-16490786D01*
X13609786Y-16443167D01*
X13619309Y-16405071D01*
X13628833Y-16386024D01*
X13638357Y-16376500D01*
X13657405Y-16366976D01*
X13847881Y-16366976D02*
X13866928Y-16366976D01*
X13885976Y-16376500D01*
X13895500Y-16386024D01*
X13905024Y-16405071D01*
X13914548Y-16443167D01*
X13914548Y-16490786D01*
X13905024Y-16528881D01*
X13895500Y-16547928D01*
X13885976Y-16557452D01*
X13866928Y-16566976D01*
X13847881Y-16566976D01*
X13828833Y-16557452D01*
X13819309Y-16547928D01*
X13809786Y-16528881D01*
X13800262Y-16490786D01*
X13800262Y-16443167D01*
X13809786Y-16405071D01*
X13819309Y-16386024D01*
X13828833Y-16376500D01*
X13847881Y-16366976D01*
X14000262Y-16566976D02*
X14000262Y-16433643D01*
X14000262Y-16452690D02*
X14009786Y-16443167D01*
X14028833Y-16433643D01*
X14057405Y-16433643D01*
X14076452Y-16443167D01*
X14085976Y-16462214D01*
X14085976Y-16566976D01*
X14085976Y-16462214D02*
X14095500Y-16443167D01*
X14114548Y-16433643D01*
X14143119Y-16433643D01*
X14162167Y-16443167D01*
X14171690Y-16462214D01*
X14171690Y-16566976D01*
X14266928Y-16566976D02*
X14266928Y-16433643D01*
X14266928Y-16452690D02*
X14276452Y-16443167D01*
X14295500Y-16433643D01*
X14324071Y-16433643D01*
X14343119Y-16443167D01*
X14352643Y-16462214D01*
X14352643Y-16566976D01*
X14352643Y-16462214D02*
X14362167Y-16443167D01*
X14381214Y-16433643D01*
X14409786Y-16433643D01*
X14428833Y-16443167D01*
X14438357Y-16462214D01*
X14438357Y-16566976D01*
X14828833Y-16357452D02*
X14657405Y-16614595D01*
X15085976Y-16366976D02*
X15105024Y-16366976D01*
X15124071Y-16376500D01*
X15133595Y-16386024D01*
X15143119Y-16405071D01*
X15152643Y-16443167D01*
X15152643Y-16490786D01*
X15143119Y-16528881D01*
X15133595Y-16547928D01*
X15124071Y-16557452D01*
X15105024Y-16566976D01*
X15085976Y-16566976D01*
X15066928Y-16557452D01*
X15057405Y-16547928D01*
X15047881Y-16528881D01*
X15038357Y-16490786D01*
X15038357Y-16443167D01*
X15047881Y-16405071D01*
X15057405Y-16386024D01*
X15066928Y-16376500D01*
X15085976Y-16366976D01*
X15238357Y-16547928D02*
X15247881Y-16557452D01*
X15238357Y-16566976D01*
X15228833Y-16557452D01*
X15238357Y-16547928D01*
X15238357Y-16566976D01*
X15371690Y-16366976D02*
X15390738Y-16366976D01*
X15409786Y-16376500D01*
X15419309Y-16386024D01*
X15428833Y-16405071D01*
X15438357Y-16443167D01*
X15438357Y-16490786D01*
X15428833Y-16528881D01*
X15419309Y-16547928D01*
X15409786Y-16557452D01*
X15390738Y-16566976D01*
X15371690Y-16566976D01*
X15352643Y-16557452D01*
X15343119Y-16547928D01*
X15333595Y-16528881D01*
X15324071Y-16490786D01*
X15324071Y-16443167D01*
X15333595Y-16405071D01*
X15343119Y-16386024D01*
X15352643Y-16376500D01*
X15371690Y-16366976D01*
X15505024Y-16366976D02*
X15628833Y-16366976D01*
X15562167Y-16443167D01*
X15590738Y-16443167D01*
X15609786Y-16452690D01*
X15619309Y-16462214D01*
X15628833Y-16481262D01*
X15628833Y-16528881D01*
X15619309Y-16547928D01*
X15609786Y-16557452D01*
X15590738Y-16566976D01*
X15533595Y-16566976D01*
X15514548Y-16557452D01*
X15505024Y-16547928D01*
X15819309Y-16566976D02*
X15705024Y-16566976D01*
X15762167Y-16566976D02*
X15762167Y-16366976D01*
X15743119Y-16395548D01*
X15724071Y-16414595D01*
X15705024Y-16424119D01*
X16000262Y-16366976D02*
X15905024Y-16366976D01*
X15895500Y-16462214D01*
X15905024Y-16452690D01*
X15924071Y-16443167D01*
X15971690Y-16443167D01*
X15990738Y-16452690D01*
X16000262Y-16462214D01*
X16009786Y-16481262D01*
X16009786Y-16528881D01*
X16000262Y-16547928D01*
X15990738Y-16557452D01*
X15971690Y-16566976D01*
X15924071Y-16566976D01*
X15905024Y-16557452D01*
X15895500Y-16547928D01*
X16085976Y-16366976D02*
X16085976Y-16405071D01*
X16162167Y-16366976D02*
X16162167Y-16405071D01*
X16457405Y-16643167D02*
X16447881Y-16633643D01*
X16428833Y-16605071D01*
X16419309Y-16586024D01*
X16409786Y-16557452D01*
X16400262Y-16509833D01*
X16400262Y-16471738D01*
X16409786Y-16424119D01*
X16419309Y-16395548D01*
X16428833Y-16376500D01*
X16447881Y-16347928D01*
X16457405Y-16338405D01*
X16638357Y-16566976D02*
X16524071Y-16566976D01*
X16581214Y-16566976D02*
X16581214Y-16366976D01*
X16562167Y-16395548D01*
X16543119Y-16414595D01*
X16524071Y-16424119D01*
X16705024Y-16366976D02*
X16828833Y-16366976D01*
X16762167Y-16443167D01*
X16790738Y-16443167D01*
X16809786Y-16452690D01*
X16819310Y-16462214D01*
X16828833Y-16481262D01*
X16828833Y-16528881D01*
X16819310Y-16547928D01*
X16809786Y-16557452D01*
X16790738Y-16566976D01*
X16733595Y-16566976D01*
X16714548Y-16557452D01*
X16705024Y-16547928D01*
X17066929Y-16566976D02*
X17066929Y-16366976D01*
X17152643Y-16566976D02*
X17152643Y-16462214D01*
X17143119Y-16443167D01*
X17124071Y-16433643D01*
X17095500Y-16433643D01*
X17076452Y-16443167D01*
X17066929Y-16452690D01*
X17276452Y-16566976D02*
X17257405Y-16557452D01*
X17247881Y-16547928D01*
X17238357Y-16528881D01*
X17238357Y-16471738D01*
X17247881Y-16452690D01*
X17257405Y-16443167D01*
X17276452Y-16433643D01*
X17305024Y-16433643D01*
X17324071Y-16443167D01*
X17333595Y-16452690D01*
X17343119Y-16471738D01*
X17343119Y-16528881D01*
X17333595Y-16547928D01*
X17324071Y-16557452D01*
X17305024Y-16566976D01*
X17276452Y-16566976D01*
X17457405Y-16566976D02*
X17438357Y-16557452D01*
X17428833Y-16538405D01*
X17428833Y-16366976D01*
X17609786Y-16557452D02*
X17590738Y-16566976D01*
X17552643Y-16566976D01*
X17533595Y-16557452D01*
X17524071Y-16538405D01*
X17524071Y-16462214D01*
X17533595Y-16443167D01*
X17552643Y-16433643D01*
X17590738Y-16433643D01*
X17609786Y-16443167D01*
X17619310Y-16462214D01*
X17619310Y-16481262D01*
X17524071Y-16500309D01*
X17695500Y-16557452D02*
X17714548Y-16566976D01*
X17752643Y-16566976D01*
X17771690Y-16557452D01*
X17781214Y-16538405D01*
X17781214Y-16528881D01*
X17771690Y-16509833D01*
X17752643Y-16500309D01*
X17724071Y-16500309D01*
X17705024Y-16490786D01*
X17695500Y-16471738D01*
X17695500Y-16462214D01*
X17705024Y-16443167D01*
X17724071Y-16433643D01*
X17752643Y-16433643D01*
X17771690Y-16443167D01*
X17847881Y-16643167D02*
X17857405Y-16633643D01*
X17876452Y-16605071D01*
X17885976Y-16586024D01*
X17895500Y-16557452D01*
X17905024Y-16509833D01*
X17905024Y-16471738D01*
X17895500Y-16424119D01*
X17885976Y-16395548D01*
X17876452Y-16376500D01*
X17857405Y-16347928D01*
X17847881Y-16338405D01*
D15*
X12872027Y-16773027D02*
X12872027Y-16707973D01*
X12806973Y-16707973D01*
X12806973Y-16773027D01*
X12872027Y-16773027D01*
D11*
X13181214Y-16630976D02*
X13200262Y-16630976D01*
X13219309Y-16640500D01*
X13228833Y-16650024D01*
X13238357Y-16669071D01*
X13247881Y-16707167D01*
X13247881Y-16754786D01*
X13238357Y-16792881D01*
X13228833Y-16811929D01*
X13219309Y-16821452D01*
X13200262Y-16830976D01*
X13181214Y-16830976D01*
X13162167Y-16821452D01*
X13152643Y-16811929D01*
X13143119Y-16792881D01*
X13133595Y-16754786D01*
X13133595Y-16707167D01*
X13143119Y-16669071D01*
X13152643Y-16650024D01*
X13162167Y-16640500D01*
X13181214Y-16630976D01*
X13333595Y-16811929D02*
X13343119Y-16821452D01*
X13333595Y-16830976D01*
X13324071Y-16821452D01*
X13333595Y-16811929D01*
X13333595Y-16830976D01*
X13438357Y-16830976D02*
X13476452Y-16830976D01*
X13495500Y-16821452D01*
X13505024Y-16811929D01*
X13524071Y-16783357D01*
X13533595Y-16745262D01*
X13533595Y-16669071D01*
X13524071Y-16650024D01*
X13514548Y-16640500D01*
X13495500Y-16630976D01*
X13457405Y-16630976D01*
X13438357Y-16640500D01*
X13428833Y-16650024D01*
X13419309Y-16669071D01*
X13419309Y-16716690D01*
X13428833Y-16735738D01*
X13438357Y-16745262D01*
X13457405Y-16754786D01*
X13495500Y-16754786D01*
X13514548Y-16745262D01*
X13524071Y-16735738D01*
X13533595Y-16716690D01*
X13609786Y-16650024D02*
X13619309Y-16640500D01*
X13638357Y-16630976D01*
X13685976Y-16630976D01*
X13705024Y-16640500D01*
X13714548Y-16650024D01*
X13724071Y-16669071D01*
X13724071Y-16688119D01*
X13714548Y-16716690D01*
X13600262Y-16830976D01*
X13724071Y-16830976D01*
X13847881Y-16630976D02*
X13866928Y-16630976D01*
X13885976Y-16640500D01*
X13895500Y-16650024D01*
X13905024Y-16669071D01*
X13914548Y-16707167D01*
X13914548Y-16754786D01*
X13905024Y-16792881D01*
X13895500Y-16811929D01*
X13885976Y-16821452D01*
X13866928Y-16830976D01*
X13847881Y-16830976D01*
X13828833Y-16821452D01*
X13819309Y-16811929D01*
X13809786Y-16792881D01*
X13800262Y-16754786D01*
X13800262Y-16707167D01*
X13809786Y-16669071D01*
X13819309Y-16650024D01*
X13828833Y-16640500D01*
X13847881Y-16630976D01*
X14000262Y-16830976D02*
X14000262Y-16697643D01*
X14000262Y-16716690D02*
X14009786Y-16707167D01*
X14028833Y-16697643D01*
X14057405Y-16697643D01*
X14076452Y-16707167D01*
X14085976Y-16726214D01*
X14085976Y-16830976D01*
X14085976Y-16726214D02*
X14095500Y-16707167D01*
X14114548Y-16697643D01*
X14143119Y-16697643D01*
X14162167Y-16707167D01*
X14171690Y-16726214D01*
X14171690Y-16830976D01*
X14266928Y-16830976D02*
X14266928Y-16697643D01*
X14266928Y-16716690D02*
X14276452Y-16707167D01*
X14295500Y-16697643D01*
X14324071Y-16697643D01*
X14343119Y-16707167D01*
X14352643Y-16726214D01*
X14352643Y-16830976D01*
X14352643Y-16726214D02*
X14362167Y-16707167D01*
X14381214Y-16697643D01*
X14409786Y-16697643D01*
X14428833Y-16707167D01*
X14438357Y-16726214D01*
X14438357Y-16830976D01*
X14828833Y-16621452D02*
X14657405Y-16878595D01*
X15085976Y-16630976D02*
X15105024Y-16630976D01*
X15124071Y-16640500D01*
X15133595Y-16650024D01*
X15143119Y-16669071D01*
X15152643Y-16707167D01*
X15152643Y-16754786D01*
X15143119Y-16792881D01*
X15133595Y-16811929D01*
X15124071Y-16821452D01*
X15105024Y-16830976D01*
X15085976Y-16830976D01*
X15066928Y-16821452D01*
X15057405Y-16811929D01*
X15047881Y-16792881D01*
X15038357Y-16754786D01*
X15038357Y-16707167D01*
X15047881Y-16669071D01*
X15057405Y-16650024D01*
X15066928Y-16640500D01*
X15085976Y-16630976D01*
X15238357Y-16811929D02*
X15247881Y-16821452D01*
X15238357Y-16830976D01*
X15228833Y-16821452D01*
X15238357Y-16811929D01*
X15238357Y-16830976D01*
X15371690Y-16630976D02*
X15390738Y-16630976D01*
X15409786Y-16640500D01*
X15419309Y-16650024D01*
X15428833Y-16669071D01*
X15438357Y-16707167D01*
X15438357Y-16754786D01*
X15428833Y-16792881D01*
X15419309Y-16811929D01*
X15409786Y-16821452D01*
X15390738Y-16830976D01*
X15371690Y-16830976D01*
X15352643Y-16821452D01*
X15343119Y-16811929D01*
X15333595Y-16792881D01*
X15324071Y-16754786D01*
X15324071Y-16707167D01*
X15333595Y-16669071D01*
X15343119Y-16650024D01*
X15352643Y-16640500D01*
X15371690Y-16630976D01*
X15505024Y-16630976D02*
X15628833Y-16630976D01*
X15562167Y-16707167D01*
X15590738Y-16707167D01*
X15609786Y-16716690D01*
X15619309Y-16726214D01*
X15628833Y-16745262D01*
X15628833Y-16792881D01*
X15619309Y-16811929D01*
X15609786Y-16821452D01*
X15590738Y-16830976D01*
X15533595Y-16830976D01*
X15514548Y-16821452D01*
X15505024Y-16811929D01*
X15800262Y-16630976D02*
X15762167Y-16630976D01*
X15743119Y-16640500D01*
X15733595Y-16650024D01*
X15714548Y-16678595D01*
X15705024Y-16716690D01*
X15705024Y-16792881D01*
X15714548Y-16811929D01*
X15724071Y-16821452D01*
X15743119Y-16830976D01*
X15781214Y-16830976D01*
X15800262Y-16821452D01*
X15809786Y-16811929D01*
X15819309Y-16792881D01*
X15819309Y-16745262D01*
X15809786Y-16726214D01*
X15800262Y-16716690D01*
X15781214Y-16707167D01*
X15743119Y-16707167D01*
X15724071Y-16716690D01*
X15714548Y-16726214D01*
X15705024Y-16745262D01*
X15895500Y-16650024D02*
X15905024Y-16640500D01*
X15924071Y-16630976D01*
X15971690Y-16630976D01*
X15990738Y-16640500D01*
X16000262Y-16650024D01*
X16009786Y-16669071D01*
X16009786Y-16688119D01*
X16000262Y-16716690D01*
X15885976Y-16830976D01*
X16009786Y-16830976D01*
X16085976Y-16630976D02*
X16085976Y-16669071D01*
X16162167Y-16630976D02*
X16162167Y-16669071D01*
X16457405Y-16907167D02*
X16447881Y-16897643D01*
X16428833Y-16869071D01*
X16419309Y-16850024D01*
X16409786Y-16821452D01*
X16400262Y-16773833D01*
X16400262Y-16735738D01*
X16409786Y-16688119D01*
X16419309Y-16659548D01*
X16428833Y-16640500D01*
X16447881Y-16611928D01*
X16457405Y-16602405D01*
X16619309Y-16697643D02*
X16619309Y-16830976D01*
X16571690Y-16621452D02*
X16524071Y-16764309D01*
X16647881Y-16764309D01*
X16876452Y-16830976D02*
X16876452Y-16630976D01*
X16962167Y-16830976D02*
X16962167Y-16726214D01*
X16952643Y-16707167D01*
X16933595Y-16697643D01*
X16905024Y-16697643D01*
X16885976Y-16707167D01*
X16876452Y-16716690D01*
X17085976Y-16830976D02*
X17066929Y-16821452D01*
X17057405Y-16811929D01*
X17047881Y-16792881D01*
X17047881Y-16735738D01*
X17057405Y-16716690D01*
X17066929Y-16707167D01*
X17085976Y-16697643D01*
X17114548Y-16697643D01*
X17133595Y-16707167D01*
X17143119Y-16716690D01*
X17152643Y-16735738D01*
X17152643Y-16792881D01*
X17143119Y-16811929D01*
X17133595Y-16821452D01*
X17114548Y-16830976D01*
X17085976Y-16830976D01*
X17266929Y-16830976D02*
X17247881Y-16821452D01*
X17238357Y-16802405D01*
X17238357Y-16630976D01*
X17419310Y-16821452D02*
X17400262Y-16830976D01*
X17362167Y-16830976D01*
X17343119Y-16821452D01*
X17333595Y-16802405D01*
X17333595Y-16726214D01*
X17343119Y-16707167D01*
X17362167Y-16697643D01*
X17400262Y-16697643D01*
X17419310Y-16707167D01*
X17428833Y-16726214D01*
X17428833Y-16745262D01*
X17333595Y-16764309D01*
X17505024Y-16821452D02*
X17524071Y-16830976D01*
X17562167Y-16830976D01*
X17581214Y-16821452D01*
X17590738Y-16802405D01*
X17590738Y-16792881D01*
X17581214Y-16773833D01*
X17562167Y-16764309D01*
X17533595Y-16764309D01*
X17514548Y-16754786D01*
X17505024Y-16735738D01*
X17505024Y-16726214D01*
X17514548Y-16707167D01*
X17533595Y-16697643D01*
X17562167Y-16697643D01*
X17581214Y-16707167D01*
X17657405Y-16907167D02*
X17666929Y-16897643D01*
X17685976Y-16869071D01*
X17695500Y-16850024D01*
X17705024Y-16821452D01*
X17714548Y-16773833D01*
X17714548Y-16735738D01*
X17705024Y-16688119D01*
X17695500Y-16659548D01*
X17685976Y-16640500D01*
X17666929Y-16611928D01*
X17657405Y-16602405D01*
D10*
X12835500Y-17054500D02*
X12885500Y-17004500D01*
X12835500Y-16954500D01*
X12785500Y-17004500D01*
X12835500Y-17054500D01*
D11*
X13247881Y-17094976D02*
X13133595Y-17094976D01*
X13190738Y-17094976D02*
X13190738Y-16894976D01*
X13171690Y-16923548D01*
X13152643Y-16942595D01*
X13133595Y-16952119D01*
X13333595Y-17075929D02*
X13343119Y-17085452D01*
X13333595Y-17094976D01*
X13324071Y-17085452D01*
X13333595Y-17075929D01*
X13333595Y-17094976D01*
X13466928Y-16894976D02*
X13485976Y-16894976D01*
X13505024Y-16904500D01*
X13514548Y-16914024D01*
X13524071Y-16933071D01*
X13533595Y-16971167D01*
X13533595Y-17018786D01*
X13524071Y-17056881D01*
X13514548Y-17075929D01*
X13505024Y-17085452D01*
X13485976Y-17094976D01*
X13466928Y-17094976D01*
X13447881Y-17085452D01*
X13438357Y-17075929D01*
X13428833Y-17056881D01*
X13419309Y-17018786D01*
X13419309Y-16971167D01*
X13428833Y-16933071D01*
X13438357Y-16914024D01*
X13447881Y-16904500D01*
X13466928Y-16894976D01*
X13657405Y-16894976D02*
X13676452Y-16894976D01*
X13695500Y-16904500D01*
X13705024Y-16914024D01*
X13714548Y-16933071D01*
X13724071Y-16971167D01*
X13724071Y-17018786D01*
X13714548Y-17056881D01*
X13705024Y-17075929D01*
X13695500Y-17085452D01*
X13676452Y-17094976D01*
X13657405Y-17094976D01*
X13638357Y-17085452D01*
X13628833Y-17075929D01*
X13619309Y-17056881D01*
X13609786Y-17018786D01*
X13609786Y-16971167D01*
X13619309Y-16933071D01*
X13628833Y-16914024D01*
X13638357Y-16904500D01*
X13657405Y-16894976D01*
X13847881Y-16894976D02*
X13866928Y-16894976D01*
X13885976Y-16904500D01*
X13895500Y-16914024D01*
X13905024Y-16933071D01*
X13914548Y-16971167D01*
X13914548Y-17018786D01*
X13905024Y-17056881D01*
X13895500Y-17075929D01*
X13885976Y-17085452D01*
X13866928Y-17094976D01*
X13847881Y-17094976D01*
X13828833Y-17085452D01*
X13819309Y-17075929D01*
X13809786Y-17056881D01*
X13800262Y-17018786D01*
X13800262Y-16971167D01*
X13809786Y-16933071D01*
X13819309Y-16914024D01*
X13828833Y-16904500D01*
X13847881Y-16894976D01*
X14000262Y-17094976D02*
X14000262Y-16961643D01*
X14000262Y-16980690D02*
X14009786Y-16971167D01*
X14028833Y-16961643D01*
X14057405Y-16961643D01*
X14076452Y-16971167D01*
X14085976Y-16990214D01*
X14085976Y-17094976D01*
X14085976Y-16990214D02*
X14095500Y-16971167D01*
X14114548Y-16961643D01*
X14143119Y-16961643D01*
X14162167Y-16971167D01*
X14171690Y-16990214D01*
X14171690Y-17094976D01*
X14266928Y-17094976D02*
X14266928Y-16961643D01*
X14266928Y-16980690D02*
X14276452Y-16971167D01*
X14295500Y-16961643D01*
X14324071Y-16961643D01*
X14343119Y-16971167D01*
X14352643Y-16990214D01*
X14352643Y-17094976D01*
X14352643Y-16990214D02*
X14362167Y-16971167D01*
X14381214Y-16961643D01*
X14409786Y-16961643D01*
X14428833Y-16971167D01*
X14438357Y-16990214D01*
X14438357Y-17094976D01*
X14828833Y-16885452D02*
X14657405Y-17142595D01*
X15085976Y-16894976D02*
X15105024Y-16894976D01*
X15124071Y-16904500D01*
X15133595Y-16914024D01*
X15143119Y-16933071D01*
X15152643Y-16971167D01*
X15152643Y-17018786D01*
X15143119Y-17056881D01*
X15133595Y-17075929D01*
X15124071Y-17085452D01*
X15105024Y-17094976D01*
X15085976Y-17094976D01*
X15066928Y-17085452D01*
X15057405Y-17075929D01*
X15047881Y-17056881D01*
X15038357Y-17018786D01*
X15038357Y-16971167D01*
X15047881Y-16933071D01*
X15057405Y-16914024D01*
X15066928Y-16904500D01*
X15085976Y-16894976D01*
X15238357Y-17075929D02*
X15247881Y-17085452D01*
X15238357Y-17094976D01*
X15228833Y-17085452D01*
X15238357Y-17075929D01*
X15238357Y-17094976D01*
X15371690Y-16894976D02*
X15390738Y-16894976D01*
X15409786Y-16904500D01*
X15419309Y-16914024D01*
X15428833Y-16933071D01*
X15438357Y-16971167D01*
X15438357Y-17018786D01*
X15428833Y-17056881D01*
X15419309Y-17075929D01*
X15409786Y-17085452D01*
X15390738Y-17094976D01*
X15371690Y-17094976D01*
X15352643Y-17085452D01*
X15343119Y-17075929D01*
X15333595Y-17056881D01*
X15324071Y-17018786D01*
X15324071Y-16971167D01*
X15333595Y-16933071D01*
X15343119Y-16914024D01*
X15352643Y-16904500D01*
X15371690Y-16894976D01*
X15505024Y-16894976D02*
X15628833Y-16894976D01*
X15562167Y-16971167D01*
X15590738Y-16971167D01*
X15609786Y-16980690D01*
X15619309Y-16990214D01*
X15628833Y-17009262D01*
X15628833Y-17056881D01*
X15619309Y-17075929D01*
X15609786Y-17085452D01*
X15590738Y-17094976D01*
X15533595Y-17094976D01*
X15514548Y-17085452D01*
X15505024Y-17075929D01*
X15724071Y-17094976D02*
X15762167Y-17094976D01*
X15781214Y-17085452D01*
X15790738Y-17075929D01*
X15809786Y-17047357D01*
X15819309Y-17009262D01*
X15819309Y-16933071D01*
X15809786Y-16914024D01*
X15800262Y-16904500D01*
X15781214Y-16894976D01*
X15743119Y-16894976D01*
X15724071Y-16904500D01*
X15714548Y-16914024D01*
X15705024Y-16933071D01*
X15705024Y-16980690D01*
X15714548Y-16999738D01*
X15724071Y-17009262D01*
X15743119Y-17018786D01*
X15781214Y-17018786D01*
X15800262Y-17009262D01*
X15809786Y-16999738D01*
X15819309Y-16980690D01*
X15990738Y-16961643D02*
X15990738Y-17094976D01*
X15943119Y-16885452D02*
X15895500Y-17028310D01*
X16019309Y-17028310D01*
X16085976Y-16894976D02*
X16085976Y-16933071D01*
X16162167Y-16894976D02*
X16162167Y-16933071D01*
X16457405Y-17171167D02*
X16447881Y-17161643D01*
X16428833Y-17133071D01*
X16419309Y-17114024D01*
X16409786Y-17085452D01*
X16400262Y-17037833D01*
X16400262Y-16999738D01*
X16409786Y-16952119D01*
X16419309Y-16923548D01*
X16428833Y-16904500D01*
X16447881Y-16875929D01*
X16457405Y-16866405D01*
X16638357Y-17094976D02*
X16524071Y-17094976D01*
X16581214Y-17094976D02*
X16581214Y-16894976D01*
X16562167Y-16923548D01*
X16543119Y-16942595D01*
X16524071Y-16952119D01*
X16705024Y-16894976D02*
X16828833Y-16894976D01*
X16762167Y-16971167D01*
X16790738Y-16971167D01*
X16809786Y-16980690D01*
X16819310Y-16990214D01*
X16828833Y-17009262D01*
X16828833Y-17056881D01*
X16819310Y-17075929D01*
X16809786Y-17085452D01*
X16790738Y-17094976D01*
X16733595Y-17094976D01*
X16714548Y-17085452D01*
X16705024Y-17075929D01*
X16952643Y-16894976D02*
X16971690Y-16894976D01*
X16990738Y-16904500D01*
X17000262Y-16914024D01*
X17009786Y-16933071D01*
X17019310Y-16971167D01*
X17019310Y-17018786D01*
X17009786Y-17056881D01*
X17000262Y-17075929D01*
X16990738Y-17085452D01*
X16971690Y-17094976D01*
X16952643Y-17094976D01*
X16933595Y-17085452D01*
X16924071Y-17075929D01*
X16914548Y-17056881D01*
X16905024Y-17018786D01*
X16905024Y-16971167D01*
X16914548Y-16933071D01*
X16924071Y-16914024D01*
X16933595Y-16904500D01*
X16952643Y-16894976D01*
X17257405Y-17094976D02*
X17257405Y-16894976D01*
X17343119Y-17094976D02*
X17343119Y-16990214D01*
X17333595Y-16971167D01*
X17314548Y-16961643D01*
X17285976Y-16961643D01*
X17266929Y-16971167D01*
X17257405Y-16980690D01*
X17466929Y-17094976D02*
X17447881Y-17085452D01*
X17438357Y-17075929D01*
X17428833Y-17056881D01*
X17428833Y-16999738D01*
X17438357Y-16980690D01*
X17447881Y-16971167D01*
X17466929Y-16961643D01*
X17495500Y-16961643D01*
X17514548Y-16971167D01*
X17524071Y-16980690D01*
X17533595Y-16999738D01*
X17533595Y-17056881D01*
X17524071Y-17075929D01*
X17514548Y-17085452D01*
X17495500Y-17094976D01*
X17466929Y-17094976D01*
X17647881Y-17094976D02*
X17628833Y-17085452D01*
X17619310Y-17066405D01*
X17619310Y-16894976D01*
X17800262Y-17085452D02*
X17781214Y-17094976D01*
X17743119Y-17094976D01*
X17724071Y-17085452D01*
X17714548Y-17066405D01*
X17714548Y-16990214D01*
X17724071Y-16971167D01*
X17743119Y-16961643D01*
X17781214Y-16961643D01*
X17800262Y-16971167D01*
X17809786Y-16990214D01*
X17809786Y-17009262D01*
X17714548Y-17028310D01*
X17885976Y-17085452D02*
X17905024Y-17094976D01*
X17943119Y-17094976D01*
X17962167Y-17085452D01*
X17971690Y-17066405D01*
X17971690Y-17056881D01*
X17962167Y-17037833D01*
X17943119Y-17028310D01*
X17914548Y-17028310D01*
X17895500Y-17018786D01*
X17885976Y-16999738D01*
X17885976Y-16990214D01*
X17895500Y-16971167D01*
X17914548Y-16961643D01*
X17943119Y-16961643D01*
X17962167Y-16971167D01*
X18038357Y-17171167D02*
X18047881Y-17161643D01*
X18066929Y-17133071D01*
X18076452Y-17114024D01*
X18085976Y-17085452D01*
X18095500Y-17037833D01*
X18095500Y-16999738D01*
X18085976Y-16952119D01*
X18076452Y-16923548D01*
X18066929Y-16904500D01*
X18047881Y-16875929D01*
X18038357Y-16866405D01*
D16*
X12775500Y-17213500D02*
X12885500Y-17323500D01*
X12885500Y-17213500D02*
X12775500Y-17323500D01*
X12885500Y-17268500D02*
G75*
G03*
X12885500Y-17268500I-55000J0D01*
G01*
D11*
X13247881Y-17358976D02*
X13133595Y-17358976D01*
X13190738Y-17358976D02*
X13190738Y-17158976D01*
X13171690Y-17187548D01*
X13152643Y-17206595D01*
X13133595Y-17216119D01*
X13333595Y-17339929D02*
X13343119Y-17349452D01*
X13333595Y-17358976D01*
X13324071Y-17349452D01*
X13333595Y-17339929D01*
X13333595Y-17358976D01*
X13533595Y-17358976D02*
X13419309Y-17358976D01*
X13476452Y-17358976D02*
X13476452Y-17158976D01*
X13457405Y-17187548D01*
X13438357Y-17206595D01*
X13419309Y-17216119D01*
X13657405Y-17158976D02*
X13676452Y-17158976D01*
X13695500Y-17168500D01*
X13705024Y-17178024D01*
X13714548Y-17197071D01*
X13724071Y-17235167D01*
X13724071Y-17282786D01*
X13714548Y-17320881D01*
X13705024Y-17339929D01*
X13695500Y-17349452D01*
X13676452Y-17358976D01*
X13657405Y-17358976D01*
X13638357Y-17349452D01*
X13628833Y-17339929D01*
X13619309Y-17320881D01*
X13609786Y-17282786D01*
X13609786Y-17235167D01*
X13619309Y-17197071D01*
X13628833Y-17178024D01*
X13638357Y-17168500D01*
X13657405Y-17158976D01*
X13847881Y-17158976D02*
X13866928Y-17158976D01*
X13885976Y-17168500D01*
X13895500Y-17178024D01*
X13905024Y-17197071D01*
X13914548Y-17235167D01*
X13914548Y-17282786D01*
X13905024Y-17320881D01*
X13895500Y-17339929D01*
X13885976Y-17349452D01*
X13866928Y-17358976D01*
X13847881Y-17358976D01*
X13828833Y-17349452D01*
X13819309Y-17339929D01*
X13809786Y-17320881D01*
X13800262Y-17282786D01*
X13800262Y-17235167D01*
X13809786Y-17197071D01*
X13819309Y-17178024D01*
X13828833Y-17168500D01*
X13847881Y-17158976D01*
X14000262Y-17358976D02*
X14000262Y-17225643D01*
X14000262Y-17244690D02*
X14009786Y-17235167D01*
X14028833Y-17225643D01*
X14057405Y-17225643D01*
X14076452Y-17235167D01*
X14085976Y-17254214D01*
X14085976Y-17358976D01*
X14085976Y-17254214D02*
X14095500Y-17235167D01*
X14114548Y-17225643D01*
X14143119Y-17225643D01*
X14162167Y-17235167D01*
X14171690Y-17254214D01*
X14171690Y-17358976D01*
X14266928Y-17358976D02*
X14266928Y-17225643D01*
X14266928Y-17244690D02*
X14276452Y-17235167D01*
X14295500Y-17225643D01*
X14324071Y-17225643D01*
X14343119Y-17235167D01*
X14352643Y-17254214D01*
X14352643Y-17358976D01*
X14352643Y-17254214D02*
X14362167Y-17235167D01*
X14381214Y-17225643D01*
X14409786Y-17225643D01*
X14428833Y-17235167D01*
X14438357Y-17254214D01*
X14438357Y-17358976D01*
X14828833Y-17149452D02*
X14657405Y-17406595D01*
X15085976Y-17158976D02*
X15105024Y-17158976D01*
X15124071Y-17168500D01*
X15133595Y-17178024D01*
X15143119Y-17197071D01*
X15152643Y-17235167D01*
X15152643Y-17282786D01*
X15143119Y-17320881D01*
X15133595Y-17339929D01*
X15124071Y-17349452D01*
X15105024Y-17358976D01*
X15085976Y-17358976D01*
X15066928Y-17349452D01*
X15057405Y-17339929D01*
X15047881Y-17320881D01*
X15038357Y-17282786D01*
X15038357Y-17235167D01*
X15047881Y-17197071D01*
X15057405Y-17178024D01*
X15066928Y-17168500D01*
X15085976Y-17158976D01*
X15238357Y-17339929D02*
X15247881Y-17349452D01*
X15238357Y-17358976D01*
X15228833Y-17349452D01*
X15238357Y-17339929D01*
X15238357Y-17358976D01*
X15371690Y-17158976D02*
X15390738Y-17158976D01*
X15409786Y-17168500D01*
X15419309Y-17178024D01*
X15428833Y-17197071D01*
X15438357Y-17235167D01*
X15438357Y-17282786D01*
X15428833Y-17320881D01*
X15419309Y-17339929D01*
X15409786Y-17349452D01*
X15390738Y-17358976D01*
X15371690Y-17358976D01*
X15352643Y-17349452D01*
X15343119Y-17339929D01*
X15333595Y-17320881D01*
X15324071Y-17282786D01*
X15324071Y-17235167D01*
X15333595Y-17197071D01*
X15343119Y-17178024D01*
X15352643Y-17168500D01*
X15371690Y-17158976D01*
X15609786Y-17225643D02*
X15609786Y-17358976D01*
X15562167Y-17149452D02*
X15514548Y-17292310D01*
X15638357Y-17292310D01*
X15695500Y-17158976D02*
X15819309Y-17158976D01*
X15752643Y-17235167D01*
X15781214Y-17235167D01*
X15800262Y-17244690D01*
X15809786Y-17254214D01*
X15819309Y-17273262D01*
X15819309Y-17320881D01*
X15809786Y-17339929D01*
X15800262Y-17349452D01*
X15781214Y-17358976D01*
X15724071Y-17358976D01*
X15705024Y-17349452D01*
X15695500Y-17339929D01*
X15885976Y-17158976D02*
X16009786Y-17158976D01*
X15943119Y-17235167D01*
X15971690Y-17235167D01*
X15990738Y-17244690D01*
X16000262Y-17254214D01*
X16009786Y-17273262D01*
X16009786Y-17320881D01*
X16000262Y-17339929D01*
X15990738Y-17349452D01*
X15971690Y-17358976D01*
X15914548Y-17358976D01*
X15895500Y-17349452D01*
X15885976Y-17339929D01*
X16085976Y-17158976D02*
X16085976Y-17197071D01*
X16162167Y-17158976D02*
X16162167Y-17197071D01*
X16457405Y-17435167D02*
X16447881Y-17425643D01*
X16428833Y-17397071D01*
X16419309Y-17378024D01*
X16409786Y-17349452D01*
X16400262Y-17301833D01*
X16400262Y-17263738D01*
X16409786Y-17216119D01*
X16419309Y-17187548D01*
X16428833Y-17168500D01*
X16447881Y-17139929D01*
X16457405Y-17130405D01*
X16619309Y-17225643D02*
X16619309Y-17358976D01*
X16571690Y-17149452D02*
X16524071Y-17292310D01*
X16647881Y-17292310D01*
X16876452Y-17358976D02*
X16876452Y-17158976D01*
X16962167Y-17358976D02*
X16962167Y-17254214D01*
X16952643Y-17235167D01*
X16933595Y-17225643D01*
X16905024Y-17225643D01*
X16885976Y-17235167D01*
X16876452Y-17244690D01*
X17085976Y-17358976D02*
X17066929Y-17349452D01*
X17057405Y-17339929D01*
X17047881Y-17320881D01*
X17047881Y-17263738D01*
X17057405Y-17244690D01*
X17066929Y-17235167D01*
X17085976Y-17225643D01*
X17114548Y-17225643D01*
X17133595Y-17235167D01*
X17143119Y-17244690D01*
X17152643Y-17263738D01*
X17152643Y-17320881D01*
X17143119Y-17339929D01*
X17133595Y-17349452D01*
X17114548Y-17358976D01*
X17085976Y-17358976D01*
X17266929Y-17358976D02*
X17247881Y-17349452D01*
X17238357Y-17330405D01*
X17238357Y-17158976D01*
X17419310Y-17349452D02*
X17400262Y-17358976D01*
X17362167Y-17358976D01*
X17343119Y-17349452D01*
X17333595Y-17330405D01*
X17333595Y-17254214D01*
X17343119Y-17235167D01*
X17362167Y-17225643D01*
X17400262Y-17225643D01*
X17419310Y-17235167D01*
X17428833Y-17254214D01*
X17428833Y-17273262D01*
X17333595Y-17292310D01*
X17505024Y-17349452D02*
X17524071Y-17358976D01*
X17562167Y-17358976D01*
X17581214Y-17349452D01*
X17590738Y-17330405D01*
X17590738Y-17320881D01*
X17581214Y-17301833D01*
X17562167Y-17292310D01*
X17533595Y-17292310D01*
X17514548Y-17282786D01*
X17505024Y-17263738D01*
X17505024Y-17254214D01*
X17514548Y-17235167D01*
X17533595Y-17225643D01*
X17562167Y-17225643D01*
X17581214Y-17235167D01*
X17657405Y-17435167D02*
X17666929Y-17425643D01*
X17685976Y-17397071D01*
X17695500Y-17378024D01*
X17705024Y-17349452D01*
X17714548Y-17301833D01*
X17714548Y-17263738D01*
X17705024Y-17216119D01*
X17695500Y-17187548D01*
X17685976Y-17168500D01*
X17666929Y-17139929D01*
X17657405Y-17130405D01*
X12685500Y-17432500D02*
X12885500Y-17632500D01*
X12885500Y-17432500D02*
X12685500Y-17632500D01*
X12785500Y-17432500D02*
X12785500Y-17632500D01*
X12685500Y-17532500D02*
X12885500Y-17532500D01*
X13133595Y-17442024D02*
X13143119Y-17432500D01*
X13162167Y-17422976D01*
X13209786Y-17422976D01*
X13228833Y-17432500D01*
X13238357Y-17442024D01*
X13247881Y-17461071D01*
X13247881Y-17480119D01*
X13238357Y-17508690D01*
X13124071Y-17622976D01*
X13247881Y-17622976D01*
X13333595Y-17603929D02*
X13343119Y-17613452D01*
X13333595Y-17622976D01*
X13324071Y-17613452D01*
X13333595Y-17603929D01*
X13333595Y-17622976D01*
X13409786Y-17422976D02*
X13533595Y-17422976D01*
X13466928Y-17499167D01*
X13495500Y-17499167D01*
X13514548Y-17508690D01*
X13524071Y-17518214D01*
X13533595Y-17537262D01*
X13533595Y-17584881D01*
X13524071Y-17603929D01*
X13514548Y-17613452D01*
X13495500Y-17622976D01*
X13438357Y-17622976D01*
X13419309Y-17613452D01*
X13409786Y-17603929D01*
X13600262Y-17422976D02*
X13724071Y-17422976D01*
X13657405Y-17499167D01*
X13685976Y-17499167D01*
X13705024Y-17508690D01*
X13714548Y-17518214D01*
X13724071Y-17537262D01*
X13724071Y-17584881D01*
X13714548Y-17603929D01*
X13705024Y-17613452D01*
X13685976Y-17622976D01*
X13628833Y-17622976D01*
X13609786Y-17613452D01*
X13600262Y-17603929D01*
X13847881Y-17422976D02*
X13866928Y-17422976D01*
X13885976Y-17432500D01*
X13895500Y-17442024D01*
X13905024Y-17461071D01*
X13914548Y-17499167D01*
X13914548Y-17546786D01*
X13905024Y-17584881D01*
X13895500Y-17603929D01*
X13885976Y-17613452D01*
X13866928Y-17622976D01*
X13847881Y-17622976D01*
X13828833Y-17613452D01*
X13819309Y-17603929D01*
X13809786Y-17584881D01*
X13800262Y-17546786D01*
X13800262Y-17499167D01*
X13809786Y-17461071D01*
X13819309Y-17442024D01*
X13828833Y-17432500D01*
X13847881Y-17422976D01*
X14000262Y-17622976D02*
X14000262Y-17489643D01*
X14000262Y-17508690D02*
X14009786Y-17499167D01*
X14028833Y-17489643D01*
X14057405Y-17489643D01*
X14076452Y-17499167D01*
X14085976Y-17518214D01*
X14085976Y-17622976D01*
X14085976Y-17518214D02*
X14095500Y-17499167D01*
X14114548Y-17489643D01*
X14143119Y-17489643D01*
X14162167Y-17499167D01*
X14171690Y-17518214D01*
X14171690Y-17622976D01*
X14266928Y-17622976D02*
X14266928Y-17489643D01*
X14266928Y-17508690D02*
X14276452Y-17499167D01*
X14295500Y-17489643D01*
X14324071Y-17489643D01*
X14343119Y-17499167D01*
X14352643Y-17518214D01*
X14352643Y-17622976D01*
X14352643Y-17518214D02*
X14362167Y-17499167D01*
X14381214Y-17489643D01*
X14409786Y-17489643D01*
X14428833Y-17499167D01*
X14438357Y-17518214D01*
X14438357Y-17622976D01*
X14828833Y-17413452D02*
X14657405Y-17670595D01*
X15085976Y-17422976D02*
X15105024Y-17422976D01*
X15124071Y-17432500D01*
X15133595Y-17442024D01*
X15143119Y-17461071D01*
X15152643Y-17499167D01*
X15152643Y-17546786D01*
X15143119Y-17584881D01*
X15133595Y-17603929D01*
X15124071Y-17613452D01*
X15105024Y-17622976D01*
X15085976Y-17622976D01*
X15066928Y-17613452D01*
X15057405Y-17603929D01*
X15047881Y-17584881D01*
X15038357Y-17546786D01*
X15038357Y-17499167D01*
X15047881Y-17461071D01*
X15057405Y-17442024D01*
X15066928Y-17432500D01*
X15085976Y-17422976D01*
X15238357Y-17603929D02*
X15247881Y-17613452D01*
X15238357Y-17622976D01*
X15228833Y-17613452D01*
X15238357Y-17603929D01*
X15238357Y-17622976D01*
X15371690Y-17422976D02*
X15390738Y-17422976D01*
X15409786Y-17432500D01*
X15419309Y-17442024D01*
X15428833Y-17461071D01*
X15438357Y-17499167D01*
X15438357Y-17546786D01*
X15428833Y-17584881D01*
X15419309Y-17603929D01*
X15409786Y-17613452D01*
X15390738Y-17622976D01*
X15371690Y-17622976D01*
X15352643Y-17613452D01*
X15343119Y-17603929D01*
X15333595Y-17584881D01*
X15324071Y-17546786D01*
X15324071Y-17499167D01*
X15333595Y-17461071D01*
X15343119Y-17442024D01*
X15352643Y-17432500D01*
X15371690Y-17422976D01*
X15533595Y-17622976D02*
X15571690Y-17622976D01*
X15590738Y-17613452D01*
X15600262Y-17603929D01*
X15619309Y-17575357D01*
X15628833Y-17537262D01*
X15628833Y-17461071D01*
X15619309Y-17442024D01*
X15609786Y-17432500D01*
X15590738Y-17422976D01*
X15552643Y-17422976D01*
X15533595Y-17432500D01*
X15524071Y-17442024D01*
X15514548Y-17461071D01*
X15514548Y-17508690D01*
X15524071Y-17527738D01*
X15533595Y-17537262D01*
X15552643Y-17546786D01*
X15590738Y-17546786D01*
X15609786Y-17537262D01*
X15619309Y-17527738D01*
X15628833Y-17508690D01*
X15819309Y-17622976D02*
X15705024Y-17622976D01*
X15762167Y-17622976D02*
X15762167Y-17422976D01*
X15743119Y-17451548D01*
X15724071Y-17470595D01*
X15705024Y-17480119D01*
X15885976Y-17422976D02*
X16019309Y-17422976D01*
X15933595Y-17622976D01*
X16085976Y-17422976D02*
X16085976Y-17461071D01*
X16162167Y-17422976D02*
X16162167Y-17461071D01*
X16457405Y-17699167D02*
X16447881Y-17689643D01*
X16428833Y-17661071D01*
X16419309Y-17642024D01*
X16409786Y-17613452D01*
X16400262Y-17565833D01*
X16400262Y-17527738D01*
X16409786Y-17480119D01*
X16419309Y-17451548D01*
X16428833Y-17432500D01*
X16447881Y-17403929D01*
X16457405Y-17394405D01*
X16524071Y-17442024D02*
X16533595Y-17432500D01*
X16552643Y-17422976D01*
X16600262Y-17422976D01*
X16619309Y-17432500D01*
X16628833Y-17442024D01*
X16638357Y-17461071D01*
X16638357Y-17480119D01*
X16628833Y-17508690D01*
X16514548Y-17622976D01*
X16638357Y-17622976D01*
X16876452Y-17622976D02*
X16876452Y-17422976D01*
X16962167Y-17622976D02*
X16962167Y-17518214D01*
X16952643Y-17499167D01*
X16933595Y-17489643D01*
X16905024Y-17489643D01*
X16885976Y-17499167D01*
X16876452Y-17508690D01*
X17085976Y-17622976D02*
X17066929Y-17613452D01*
X17057405Y-17603929D01*
X17047881Y-17584881D01*
X17047881Y-17527738D01*
X17057405Y-17508690D01*
X17066929Y-17499167D01*
X17085976Y-17489643D01*
X17114548Y-17489643D01*
X17133595Y-17499167D01*
X17143119Y-17508690D01*
X17152643Y-17527738D01*
X17152643Y-17584881D01*
X17143119Y-17603929D01*
X17133595Y-17613452D01*
X17114548Y-17622976D01*
X17085976Y-17622976D01*
X17266929Y-17622976D02*
X17247881Y-17613452D01*
X17238357Y-17594405D01*
X17238357Y-17422976D01*
X17419310Y-17613452D02*
X17400262Y-17622976D01*
X17362167Y-17622976D01*
X17343119Y-17613452D01*
X17333595Y-17594405D01*
X17333595Y-17518214D01*
X17343119Y-17499167D01*
X17362167Y-17489643D01*
X17400262Y-17489643D01*
X17419310Y-17499167D01*
X17428833Y-17518214D01*
X17428833Y-17537262D01*
X17333595Y-17556310D01*
X17505024Y-17613452D02*
X17524071Y-17622976D01*
X17562167Y-17622976D01*
X17581214Y-17613452D01*
X17590738Y-17594405D01*
X17590738Y-17584881D01*
X17581214Y-17565833D01*
X17562167Y-17556310D01*
X17533595Y-17556310D01*
X17514548Y-17546786D01*
X17505024Y-17527738D01*
X17505024Y-17518214D01*
X17514548Y-17499167D01*
X17533595Y-17489643D01*
X17562167Y-17489643D01*
X17581214Y-17499167D01*
X17657405Y-17699167D02*
X17666929Y-17689643D01*
X17685976Y-17661071D01*
X17695500Y-17642024D01*
X17705024Y-17613452D01*
X17714548Y-17565833D01*
X17714548Y-17527738D01*
X17705024Y-17480119D01*
X17695500Y-17451548D01*
X17685976Y-17432500D01*
X17666929Y-17403929D01*
X17657405Y-17394405D01*
M02*
